<svg width="592" height="74" viewBox="0 0 592 74" fill="none" xmlns="http://www.w3.org/2000/svg">
<path d="M162.51 0.374342C92.7262 1.81664 8.53518 4.22046 2.86782 4.90726L0 5.25067V39.5223V73.8626L2.9361 73.5192C14.6122 72.1456 86.7174 66.9946 118.127 65.2776C219.593 59.7831 322.22 58.6842 411.737 62.1869C434.68 63.0798 468.615 64.7281 483.091 65.621C513.34 67.544 581.075 72.6264 588.791 73.5879L592 74V39.6597V5.31935L584.011 4.90726C566.668 4.01442 530.137 2.84685 457.144 0.992467C421.433 0.099619 199.928 -0.381146 162.51 0.374342ZM277.223 30.2504V47.0772H274.491C272.716 47.0772 271.555 46.7338 271.35 46.1157C271.009 45.2915 270.531 45.3602 268.619 46.5277C264.044 49.275 259.06 46.3904 257.353 40.0031C255.851 34.3026 257.967 26.6104 261.586 24.756C263.908 23.5197 268.414 23.3824 269.575 24.5499C270.19 25.1681 270.394 24.0692 270.394 19.3989V13.4237H273.809H277.223V30.2504ZM299.004 14.866C300.916 15.5528 301.121 15.8962 301.121 18.6434C301.121 22.0087 301.258 21.9401 297.639 20.9099C294.361 19.8796 291.22 21.0472 289.923 23.6571C287.397 28.6708 287.874 35.9509 291.015 39.1102C292.859 40.9646 293.269 41.0333 297.092 40.6899L301.121 40.3465V43.2997C301.121 46.253 301.053 46.3217 298.731 46.8025C291.562 48.1074 285.553 45.7036 282.958 40.4152C281.388 37.1185 280.842 28.0526 282.002 24.1378C284.256 16.4456 291.767 12.3248 299.004 14.866ZM125.228 17.3385C125.433 18.7808 125.638 26.5417 125.638 34.5086V49.1376H122.292H119.015L118.537 42.819C118.332 39.385 118.127 31.8301 118.127 26.0609C118.127 14.5226 117.922 15.072 122.633 14.866C124.614 14.7973 124.818 15.0033 125.228 17.3385ZM173.025 17.4071C177.122 20.223 178.488 23.5884 178.761 31.1433C179.102 38.8355 177.941 42.5443 174.459 45.6349C172.274 47.5579 168.382 49.1376 165.924 49.1376C161.417 49.1376 156.501 45.8409 154.248 41.3767C152.268 37.5306 151.79 29.907 153.155 25.0307C155.75 16.0335 165.651 12.2561 173.025 17.4071ZM113.211 16.3083C114.371 17.4758 114.235 20.7038 112.937 21.9401C110.479 24.4126 106.519 22.5582 106.519 18.9181C106.519 17.7505 106.997 16.6517 107.748 16.2396C109.319 15.278 112.186 15.278 113.211 16.3083ZM47.797 21.3219V24.4126H42.6759H37.5548V28.19V31.9674H42.3345H47.1142V35.0581V38.1487H44.4512C43.0173 38.1487 40.9006 38.3547 39.6715 38.5608L37.5548 38.9729L37.7596 45.2915L37.8962 51.5414L34.4138 51.7475L30.9315 51.9535L30.5218 41.102C29.839 24.5499 29.9073 19.0555 30.9315 18.7121C31.3412 18.506 35.3698 18.3 39.8081 18.3L47.797 18.2313V21.3219ZM356.429 21.5967C356.429 24.1378 356.566 24.3439 358.682 24.5499C360.662 24.756 360.867 24.962 361.072 27.2972C361.277 29.8383 361.277 29.907 358.819 29.907H356.361L356.566 35.8822L356.77 41.9261L359.024 41.7888C361.277 41.7201 361.277 41.7201 361.072 44.536L360.867 47.4206L357.248 47.6266C354.039 47.8327 353.425 47.6266 351.649 45.7723C349.669 43.7805 349.601 43.5745 349.601 36.8438C349.601 30.3878 349.533 29.907 348.235 29.907C347.074 29.907 346.87 29.4263 346.87 27.1598C346.87 24.8933 347.074 24.4126 348.167 24.4126C349.191 24.4126 349.601 23.8631 349.737 22.2148C349.942 19.9483 351.24 19.1242 354.927 18.9868C356.224 18.9181 356.429 19.2615 356.429 21.5967ZM424.71 22.9703C424.71 25.5115 424.847 25.7175 426.964 25.9235C428.944 26.1296 429.149 26.3356 429.354 28.6708C429.558 31.212 429.558 31.2806 427.169 31.2806H424.71V37.1185V42.9563L426.827 43.4371C428.739 43.7805 428.876 44.0552 428.671 46.3217L428.466 48.7942H424.779C421.638 48.7255 420.887 48.4508 419.521 46.8025C418.019 45.0854 417.882 44.33 417.882 38.08C417.882 31.7614 417.814 31.2806 416.517 31.2806C415.356 31.2806 415.151 30.7999 415.151 28.5334C415.151 26.2669 415.356 25.7862 416.448 25.7862C417.473 25.7862 417.882 25.2367 418.019 23.5884C418.224 21.3219 419.521 20.4978 423.208 20.3604C424.506 20.2917 424.71 20.6351 424.71 22.9703ZM228.333 24.4126C231.406 25.5801 232.157 28.2587 232.157 38.0113V46.8711L229.699 47.2832C225.465 47.97 225.329 47.764 225.329 39.5223C225.329 31.0059 225.056 29.907 223.007 29.907C220.276 29.907 219.866 31.0746 219.866 39.6597V47.764H216.452H213.038V36.0883V24.4126H216.111C218.364 24.4126 219.183 24.6873 219.183 25.4428C219.183 26.6104 220.276 26.8164 220.89 25.7175C221.983 24.0005 225.602 23.3137 228.333 24.4126ZM249.978 24.8247C252.641 26.1983 254.621 30.5938 254.69 34.9207C254.69 38.1487 254.621 38.2174 252.846 38.08C251.754 38.0113 248.886 38.0113 246.359 38.0113C242.126 38.1487 241.853 38.2174 242.194 39.591C242.809 41.7201 245.54 42.5443 249.5 41.6514C251.344 41.2393 252.914 40.9646 253.051 41.0333C253.119 41.1706 253.324 42.3382 253.461 43.6432C253.666 45.9096 253.529 46.047 250.593 46.9398C246.701 48.1074 241.58 47.5579 238.985 45.7036C235.093 42.8877 233.727 34.3026 236.322 28.8768C238.507 24.3439 245.199 22.2835 249.978 24.8247ZM318.669 25.0994C324.542 28.6708 325.224 39.4536 319.898 44.8107C317.85 46.8711 317.236 47.0772 313.685 47.0772C306.31 47.0772 303.17 43.5058 303.17 35.2641C303.17 29.9757 304.672 26.7477 308.018 24.962C311.09 23.3137 315.87 23.3824 318.669 25.0994ZM342.704 25.5115L344.821 27.2972V37.1872V47.0772H341.407H337.993V38.8355C337.993 31.8301 337.857 30.4565 336.901 30.1131C334.238 29.0829 333.555 30.7312 333.213 38.9042L332.872 46.7338L329.663 46.9398L326.385 47.1459V35.8136V24.4126H329.458C331.643 24.4126 332.531 24.6873 332.531 25.3741C332.531 26.1296 333.077 26.0609 335.057 25.0307C338.471 23.245 340.246 23.3824 342.704 25.5115ZM210.99 24.756C210.99 25.1681 207.098 41.5141 206.142 45.2228L205.459 47.8327L201.976 47.6266L198.426 47.4206L197.06 40.8959L195.763 34.4399L194.329 40.8959L192.895 47.4206H189.276H185.657L182.926 36.8438C181.424 31.0059 180.058 25.9922 179.853 25.7175C179.648 25.3741 181.151 25.0994 183.267 25.0994H186.955L187.774 28.6708C188.184 30.6625 188.73 33.6158 188.935 35.1954C189.481 39.1789 190.232 38.9042 190.778 34.5086C191.051 32.5856 191.598 29.6323 192.007 27.984C192.69 25.1681 192.758 25.0994 195.695 25.0994C198.972 25.0994 198.836 24.8247 201.021 34.7833C201.567 37.1872 201.976 38.8355 202.045 38.4234C202.25 36.2256 204.23 25.5115 204.571 25.0307C204.913 24.4126 210.99 24.1378 210.99 24.756ZM376.913 27.8466V31.2806H374.592C370.905 31.2806 370.085 33.0663 370.085 41.102V47.8327L366.876 47.6266C364.281 47.4893 363.599 47.1459 363.667 46.1843C363.667 45.5662 363.735 40.5525 363.803 35.0581L363.94 25.0994H367.013C369.266 25.0994 370.085 25.3741 370.085 26.1296C370.085 26.9538 370.495 26.8851 372.339 25.7862C376.026 23.5197 376.913 23.8631 376.913 27.8466ZM392.482 26.2669C395.486 28.1213 396.237 31.418 395.691 40.0031L395.213 47.764H392.618C391.184 47.764 389.887 47.4206 389.75 47.0085C389.614 46.5964 388.794 46.6651 387.497 47.3519C384.356 49.0002 381.83 48.7255 379.576 46.4591C378.006 44.8794 377.596 43.8492 377.596 41.5827C377.596 40.0031 377.938 38.1487 378.347 37.3245C379.303 35.5388 382.991 34.0279 386.473 34.0279C388.658 34.0279 389.204 33.7531 389.204 32.7229C389.204 29.9757 386.609 29.3576 381.283 30.9372C380.054 31.3493 379.781 31.0746 379.44 29.0829C379.03 26.2669 379.372 25.9235 383.127 25.1681C386.678 24.4813 390.297 24.8933 392.482 26.2669ZM412.01 25.7862C414.878 26.8851 414.263 31.624 411.327 30.8686C408.118 30.0444 406.411 31.0746 405.523 34.1652C404.021 39.9344 406.548 43.7118 411.327 42.819C412.761 42.5443 413.034 42.819 413.376 44.9481C413.785 47.8327 413.854 47.764 410.781 48.4508C405.045 49.7557 400.129 46.5964 398.764 40.7586C397.261 34.4399 399.446 27.984 403.748 26.1296C406.343 24.962 409.62 24.8247 412.01 25.7862ZM101.33 27.8466C102.9 29.4263 103.651 34.2339 103.719 43.5058L103.788 49.8931L100.237 49.687L96.6182 49.481L96.4817 42.2695C96.2085 33.4097 95.9354 31.9674 94.2967 31.9674C91.7702 31.9674 91.1557 33.8218 91.1557 42.1322V49.9618L88.0148 50.2365L84.8738 50.5112L84.3958 46.9398C84.191 44.9481 83.9862 41.102 83.9862 38.4234C83.9862 32.8603 83.0985 31.2806 80.6404 32.6542C79.821 33.0663 79.2065 33.7531 79.1382 34.2339C79.1382 34.7147 79.1382 38.5608 79.2065 42.7503L79.2747 50.5112H75.9289H72.5832L72.1735 43.1624C71.9003 39.1789 71.6955 33.8905 71.6955 31.4867V27.1598H74.7682C76.8849 27.1598 77.9774 27.5032 78.2505 28.19C78.5919 29.0829 78.9333 29.0142 80.3672 27.8466C82.7571 25.9922 86.9223 25.9922 88.8341 27.9153C90.1315 29.2202 90.3363 29.2202 91.4288 28.2587C94.3649 25.5801 98.8715 25.3741 101.33 27.8466ZM114.303 36.9124C114.645 42.819 114.713 48.1761 114.508 48.7942C114.167 49.5497 113.074 49.8244 110.616 49.8244H107.202V38.2174V26.5417L109.114 26.2669C113.825 25.5115 113.62 25.0307 114.303 36.9124ZM136.563 30.3191C137.314 32.7916 137.928 35.1268 137.928 35.4015C137.928 35.7449 138.27 36.8438 138.68 37.9427L139.431 39.8657L140.318 36.7751C140.796 35.0581 141.684 31.8988 142.298 29.701L143.459 25.7862H146.805C148.717 25.7862 150.219 25.9235 150.219 26.0609C150.219 27.1598 142.025 52.6403 141.069 54.426C139.772 57.0359 138.611 57.7227 134.719 58.4095L131.783 58.8903V56.143C131.783 53.8079 132.056 53.3271 133.49 52.9837C135.47 52.503 136.973 49.481 135.948 48.1761C135.266 47.3519 130.486 34.3713 128.71 28.6708L127.823 25.7862H131.51H135.129L136.563 30.3191ZM445.195 27.0224C450.111 29.4263 452.16 37.874 449.36 44.1239C446.424 50.5799 438.298 51.6788 433.177 46.3217C431.402 44.4673 431.197 43.7118 430.992 38.9042C430.788 34.5773 430.992 33.0663 432.085 30.7999C434.475 26.1296 440.21 24.4813 445.195 27.0224ZM460.08 27.984C460.353 29.1515 460.49 29.1515 461.514 28.2587C463.016 26.8851 466.089 26.1983 466.704 27.1598C466.977 27.5719 466.977 29.1515 466.704 30.5938C466.294 33.135 466.089 33.3411 463.972 33.3411C462.743 33.3411 461.446 33.7531 461.036 34.2339C460.627 34.7147 460.217 38.2861 460.08 42.2695C459.875 49.275 459.807 49.481 458.237 49.687C457.417 49.8244 455.915 49.7557 455.027 49.5497L453.389 49.1376V38.2174C453.389 32.2422 453.594 27.1598 453.867 26.8851C454.14 26.679 455.574 26.473 457.008 26.6104C458.988 26.679 459.807 27.0911 460.08 27.984ZM481.589 27.984C482.34 28.396 482.75 29.4263 482.75 31.0059C482.75 33.135 482.545 33.4097 481.589 32.929C480.906 32.6542 479.131 32.3795 477.629 32.3795C473.463 32.3108 473.737 34.0279 478.311 36.2943C481.247 37.7366 482.408 38.7668 483.159 40.6212C484.525 43.9179 483.433 47.3519 480.428 49.2063C476.331 51.7475 467.728 50.2365 467.728 46.9398C467.728 44.33 468.684 43.3684 470.322 44.2613C471.074 44.6734 472.849 45.0168 474.146 45.0168C477.629 45.0168 477.492 42.8877 473.941 41.2393C469.708 39.385 468.069 37.1872 468.069 33.6158C468.069 30.1131 469.776 27.984 473.259 27.1598C475.717 26.6104 479.609 26.9538 481.589 27.984ZM65.6185 29.0829C67.7352 30.9372 67.8035 31.3493 68.3497 37.874C68.6228 41.5827 68.896 45.9783 68.9642 47.5579V50.5112H65.9599C64.1163 50.5112 62.8189 50.1678 62.6141 49.6184C62.4092 49.0002 61.9995 49.0689 61.0436 49.9618C55.9908 54.426 48.275 49.481 49.5723 42.6129C50.1868 39.1789 52.5767 37.3245 57.6295 36.5004C61.7264 35.8136 61.9313 35.6762 61.385 34.1652C60.907 32.929 60.2925 32.6542 57.6978 32.6542C55.9225 32.6542 53.9423 32.9977 53.123 33.4097C51.4842 34.3026 51.4842 34.3026 51.0062 31.1433C50.6648 28.8768 50.8014 28.5334 52.4401 27.9153C53.4644 27.5719 56.3322 27.2285 58.8586 27.2285C63.0238 27.1598 63.7066 27.3658 65.6185 29.0829ZM508.97 28.5334C510.199 28.9455 510.745 29.701 510.745 30.7312C510.745 33.135 509.994 33.6845 506.648 33.6845C503.576 33.6845 503.576 33.6845 502.62 36.7064C501.8 39.385 501.8 40.1404 502.62 42.5443C503.576 45.2915 503.644 45.3602 506.785 45.2915C509.857 45.2915 509.926 45.3602 510.199 47.5579C510.54 50.5112 509.516 51.3354 505.419 51.4041C501.527 51.4727 498.523 49.8931 496.679 46.8025C494.972 43.9179 494.904 36.0196 496.611 32.7916C498.864 28.6021 504.327 26.7477 508.97 28.5334ZM527.679 29.907C530.547 31.6927 531.912 34.9894 531.912 40.0031C531.844 47.5579 528.293 51.8848 522.08 51.8848C515.525 51.8848 511.633 46.8711 512.247 39.1789C512.657 34.1652 514.296 31.0746 517.164 29.6323C520.168 28.1213 524.948 28.2587 527.679 29.907ZM541.335 30.6625C541.472 30.9372 542.564 30.7312 543.862 30.1131C546.388 28.8768 549.051 29.2889 550.963 31.212C552.124 32.3795 552.26 32.3795 553.762 31.1433C555.401 29.7697 559.225 29.4949 561.273 30.5938C561.956 30.9372 562.776 32.1735 563.185 33.2037C563.936 35.4702 563.458 52.4343 562.571 52.9837C562.298 53.1211 560.795 53.0524 559.225 52.8464L556.494 52.3656L556.63 44.0552L556.835 35.7449H555.196C552.875 35.7449 552.533 36.8438 551.987 45.1541L551.577 52.5716H548.505H545.5L545.637 44.33C545.842 35.4702 545.432 34.0279 543.042 35.3328C541.54 36.0883 540.789 40.0718 540.789 47.6266V51.9535L537.58 51.7475L534.37 51.5414L534.507 42.6129C534.644 37.6679 534.848 32.7229 535.053 31.5554C535.463 29.4263 535.531 29.3576 538.262 29.7697C539.833 29.9757 541.199 30.3878 541.335 30.6625ZM492.309 44.9481C493.47 47.1459 493.06 49.0689 491.285 50.2365C488.007 52.4343 484.252 48.5882 486.164 45.0168C487.188 43.1624 491.285 43.0937 492.309 44.9481Z" fill="#013F84"/>
<path d="M264.932 30.5248C263.976 32.4478 264.045 39.0412 265.137 40.4835C266.366 42.2005 269.098 41.651 270.258 39.5219C271.283 37.4615 270.805 30.5934 269.507 29.7693C268.005 28.8077 265.683 29.2198 264.932 30.5248Z" fill="#013F84"/>
<path d="M163.807 21.9398C160.803 23.3821 159.642 26.8161 159.983 32.9287C160.393 38.9039 161.691 41.5138 164.627 42.338C167.085 42.9561 169.133 41.9259 170.362 39.5221C171.864 36.5688 171.864 27.9837 170.362 24.7557C168.997 21.9398 166.197 20.7036 163.807 21.9398Z" fill="#013F84"/>
<path d="M243.629 29.3573C243.014 29.8381 242.332 30.937 242.058 31.7612C241.649 33.2721 241.854 33.3408 244.721 33.3408C247.589 33.3408 247.862 33.2035 247.862 31.6238C247.862 30.6623 247.316 29.6321 246.565 29.22C244.926 28.3271 244.926 28.3271 243.629 29.3573Z" fill="#013F84"/>
<path d="M310.68 30.5249C310.339 31.2804 309.998 33.7529 309.998 36.0193C309.998 39.7281 310.202 40.2775 311.705 41.3078C313.343 42.4066 313.548 42.4066 314.777 41.2391C315.87 40.2089 316.143 39.11 316.143 35.4012C316.143 32.7914 315.801 30.5249 315.324 30.0441C314.094 28.8079 311.5 29.0826 310.68 30.5249Z" fill="#013F84"/>
<path d="M384.425 39.1783C383.264 40.6206 383.879 42.6123 385.654 42.8183C387.702 43.1617 389.204 41.8568 389.204 39.7964C389.204 38.4228 388.863 38.1481 387.224 38.1481C386.132 38.1481 384.903 38.6288 384.425 39.1783Z" fill="#013F84"/>
<path d="M438.502 32.1041C437.205 33.409 437.409 41.9254 438.775 43.299C441.301 45.8402 443.828 42.8183 443.828 37.2551C443.828 35.4008 443.486 33.3403 443.145 32.5849C442.326 31.1426 439.731 30.8678 438.502 32.1041Z" fill="#013F84"/>
<path d="M57.0837 41.9942C55.7864 43.2304 55.7864 43.3678 56.674 45.0848C58.1079 47.6946 62.1365 45.7029 62.1365 42.4062C62.1365 41.17 61.7268 40.8953 60.1564 40.8953C59.0639 40.8953 57.63 41.376 57.0837 41.9942Z" fill="#013F84"/>
<path d="M520.235 34.4394C519.074 35.8817 518.596 43.0931 519.552 44.9475C520.576 46.8019 523.444 46.8706 524.4 45.0849C525.493 42.9558 525.288 35.6756 523.991 34.4394C522.625 33.0658 521.396 33.0658 520.235 34.4394Z" fill="#013F84"/>
</svg>
