<svg width="384" height="278" viewBox="0 0 384 278" fill="none" xmlns="http://www.w3.org/2000/svg">
<path d="M173.121 1.06409C164.8 3.23668 161.436 5.14324 158.913 9.0007C157.983 10.4195 156.39 11.8827 154.177 13.3459C141.341 21.7702 135.277 34.6284 135.277 53.428V58.6156L132.887 61.2316C126.292 68.5474 125.717 75.3756 131.382 79.0557C132.312 79.6321 133.95 80.3858 135.012 80.6962L136.915 81.2283L137.579 84.6423C139.349 93.5544 146.21 104.772 151.61 107.521C153.602 108.541 153.69 108.63 154.487 111.911L155.328 115.28L153.336 117.054C150.946 119.138 149.618 121.31 147.936 125.833C146.52 129.513 147.759 128.626 134.392 135.632C129.656 138.115 123.371 141.13 120.406 142.327C101.772 149.776 94.0704 156.205 83.7133 172.876C82.0313 175.625 76.9413 183.384 72.4709 190.124C68.0006 196.908 63.7515 203.691 62.999 205.288C58.2631 215.707 58.3074 227.235 63.1318 237.078C64.9908 240.847 68.2661 245.37 70.3907 247.01L71.5857 247.941L93.3622 247.454C105.357 247.188 123.504 246.966 133.728 246.966C143.953 246.966 161.436 246.833 172.59 246.656C192.286 246.39 192.817 246.345 190.958 245.636C186.62 243.951 183.611 242.399 180.158 240.049C176.042 237.344 175.201 236.458 177.547 237.477C182.283 239.428 196.137 242 207.423 242.975C218.4 243.907 217.603 243.729 217.603 245.458V246.966H219.816C222.339 246.966 222.118 247.454 222.914 239.694C223.18 237.256 223.49 235.172 223.578 235.083C223.667 234.95 225.969 235.128 228.624 235.394C231.324 235.704 234.245 235.881 235.175 235.793C237.078 235.66 236.99 235.039 236.193 241.645C235.529 247.276 235.396 246.966 237.963 246.966C240.088 246.966 240.132 246.922 240.442 245.414C240.707 243.862 240.752 243.862 243.009 243.862C244.248 243.862 247.878 243.552 251.02 243.197C258.899 242.31 258.235 242.177 258.412 244.616L258.545 246.744L262.617 247.143C266.866 247.542 268.813 247.276 267.618 246.478C267.264 246.257 266.113 245.857 265.051 245.591L263.148 245.059L263.281 240.36L263.413 235.66L265.848 235.394C268.238 235.128 273.771 235.704 274.302 236.236C274.7 236.635 273.948 242.887 273.372 244.173C272.885 245.281 272.575 245.37 271.602 244.749C271.115 244.483 270.938 243.552 270.938 241.778V239.207L269.3 238.808C267.043 238.231 266.29 238.941 266.29 241.69V243.862L268.326 244.35C269.654 244.705 270.23 245.059 270.097 245.458C269.743 246.39 270.805 246.922 273.859 247.232C276.603 247.498 276.869 247.454 280.233 245.724C282.18 244.749 285.013 243.02 286.562 241.911C289.041 240.049 289.306 239.96 289.306 240.847C289.306 241.379 288.642 243.02 287.801 244.527L286.296 247.321L293.555 247.631L300.814 247.941L304.001 245.37C308.161 241.956 314.269 235.039 318.164 229.275L321.307 224.708L320.732 222.846C319.271 217.88 310.242 194.114 305.639 183.03C301.301 172.61 291.785 161.969 282.224 156.826C278.993 155.052 274.523 153.323 267.397 151.062C264.741 150.219 256.863 147.071 249.914 144.1L237.299 138.691L232.873 134.169C228.89 130.089 223.844 125.877 222.383 125.39C221.985 125.257 222.826 123.527 224.818 120.246C231.634 109.073 235.352 97.4119 234.732 89.1205C234.555 86.7706 234.688 85.0857 235.175 83.4009C235.662 81.6273 235.794 80.1198 235.573 77.6368C235.175 73.0256 234.644 71.3851 232.873 68.7248C232.032 67.439 231.324 66.3748 231.324 66.3305C231.324 66.2418 232.386 65.9758 233.67 65.6654C236.812 64.956 242.168 61.7636 244.558 59.192C251.374 51.7874 248.232 45.2253 235.662 40.7471C231.988 39.417 231.59 39.1509 231.014 37.7321C226.278 25.8494 219.285 15.0307 213.929 11.1733C210.964 9.08937 205.033 6.34038 201.359 5.40927C198.969 4.78853 197.641 4.16779 196.048 2.79329C193.392 0.576363 190.515 -3.85046e-05 182.593 -3.85046e-05C178.299 0.0443001 176.219 0.265993 173.121 1.06409ZM191.932 2.92631C193.968 3.32536 200.297 13.2129 201.448 17.8684L201.758 19.0656H197.863C190.825 19.0656 180.158 20.8834 178.83 22.3023C178.432 22.7013 178.565 24.3419 179.539 29.2634C181.132 37.5991 181.309 39.0179 180.911 39.0179C180.734 39.0179 179.937 35.9586 179.14 32.2341C175.865 17.2033 172.058 8.51297 167.898 6.65075L166.172 5.85266L169.226 4.96588C176.485 2.74895 180.335 2.21689 186.399 2.48292C188.833 2.61594 191.312 2.79329 191.932 2.92631ZM205.21 9.62144C208.751 10.8186 210.654 12.0157 213.752 15.0307C218.621 19.7306 222.87 26.7361 225.747 34.9388L226.898 38.2198L224.065 37.9095C218.4 37.2887 218.533 37.3331 216.984 33.919C216.231 32.1898 215.213 30.1059 214.726 29.2634C213.531 27.0908 213.354 28.3767 214.239 32.6332C214.638 34.4954 214.947 36.1803 214.947 36.402C214.947 36.6236 213.752 36.801 212.292 36.801C209.902 36.801 209.636 36.7123 209.415 35.7812C207.113 25.3616 205.166 19.0656 202.333 12.9912C201.227 10.6412 200.341 8.64599 200.341 8.55731C200.341 8.29128 202.82 8.82334 205.21 9.62144ZM166.083 14.277C167.898 16.3166 169.491 19.6863 171.483 25.7163C172.811 29.6625 175.29 39.9047 175.024 40.1264C174.935 40.1707 173.298 40.6585 171.35 41.1462C169.359 41.6782 166.039 42.698 163.914 43.4074L160.019 44.7376L159.621 43.6735C159.4 43.0971 158.869 40.8358 158.47 38.7076C158.072 36.5793 157.718 34.7614 157.629 34.6727C157.452 34.4954 156.656 39.7273 156.257 43.3188L155.992 46.1121L151.743 48.1073C149.441 49.2158 147.449 50.0139 147.316 49.8809C147.184 49.7479 147.051 47.0876 147.051 43.9395C147.007 40.7915 146.874 38.3085 146.741 38.3972C146.21 38.7076 145.458 42.4763 145.192 46.3781C144.572 54.7581 143.377 50.945 143.82 42.166C144.351 32.6332 147.272 24.8296 152.185 19.642C156.39 15.2968 161.79 11.794 163.649 12.2818C164.091 12.4148 165.198 13.3015 166.083 14.277ZM203.749 23.7211C204.9 28.2436 206.405 35.8699 206.184 36.1359C206.051 36.2689 204.635 36.3576 203.041 36.3576C200.386 36.3576 191.002 37.2444 186.355 37.9538L184.496 38.2198L184.053 36.0916C182.593 29.1748 181.663 23.8985 181.84 23.7211C182.15 23.3664 188.347 22.1693 191.932 21.7702C193.746 21.5485 197.022 21.4155 199.191 21.4598L203.174 21.5042L203.749 23.7211ZM226.411 41.0132C235.75 42.4763 241.637 45.1367 243.673 48.8168L244.779 50.8563L243.939 52.7186C242.876 55.1128 239.867 57.7732 236.193 59.6354C232.165 61.675 230.527 61.9853 233.98 60.0788C237.432 58.1722 240.442 55.3345 241.106 53.3393C242.08 50.3243 239.955 48.8611 231.678 46.8215C224.995 45.181 219.86 44.6489 209.194 44.6046C199.899 44.5603 194.189 45.0036 185.735 46.3781C167.323 49.3932 146.254 57.6845 138.464 64.9117C135.809 67.3946 133.507 70.9417 133.507 72.4936C133.507 72.8926 133.286 73.07 133.02 72.8926C132.71 72.7153 132.622 71.9615 132.799 70.853C133.728 65.0003 140.545 58.2609 150.68 53.0289C164.18 46.1564 180.247 41.9886 200.341 40.1707C205.033 39.7717 221.985 40.3037 226.411 41.0132ZM220.878 52.8516L223.534 53.428L224.331 56.5317C224.729 58.2165 225.482 62.7391 225.969 66.5522C226.632 71.7842 227.164 74.3115 228.226 76.9274C228.978 78.834 229.863 81.583 230.218 83.0905C232.032 90.8054 229.908 101.358 224.287 111.999C222.162 116.034 218.09 122.552 217.824 122.286C217.78 122.197 217.913 120.69 218.134 118.916C218.577 115.635 218.356 113.507 217.647 113.507C217.426 113.507 216.541 114.748 215.656 116.3C214.328 118.694 212.779 120.158 211.539 120.158C211.407 120.158 210.256 119.049 208.972 117.719C206.892 115.591 206.405 115.28 204.856 115.28C201.802 115.28 200.474 116.034 199.013 118.65C196.491 123.04 195.428 123.217 187.063 120.512C183.92 119.492 181.176 118.783 181.043 118.96C180.424 119.537 185.16 126.321 188.568 129.69C193.835 134.967 198.704 136.962 204.723 136.385C209.503 135.942 213.664 133.592 216.762 129.513L217.913 128.05L218.311 137.716C218.931 152.968 218.842 154.564 217.293 157.89C216.541 159.442 215.567 161.215 215.08 161.836L214.151 162.9L211.008 159.53C207.246 155.54 205.21 154.032 193.702 146.805C180.07 138.203 173.431 133.193 167.544 126.897C162.852 121.887 161.967 119.98 159.444 109.383C159.001 107.521 159.842 107.964 161.392 110.447C163.295 113.551 166.836 117.231 169.89 119.315C171.262 120.291 172.501 121.044 172.634 121.044C172.767 121.044 171.616 119.315 170.067 117.143C166.437 112.177 163.56 107.122 161.657 102.511L160.152 98.8307L159.356 100.516C158.293 102.644 155.903 104.018 154.044 103.575C151.477 102.91 145.944 95.6383 143.289 89.4309C142.049 86.5932 141.386 82.4698 141.74 80.1641C142.182 77.3708 144.307 75.3756 146.874 75.3756C150.548 75.3756 153.557 78.4349 156.124 84.8197C157.452 88.1008 157.585 88.2781 158.692 88.0121C159.887 87.746 162.719 84.9084 162.719 84.0216C162.719 83.7112 162.232 82.3811 161.613 81.0066C160.019 77.5038 159.311 71.7398 159.975 67.7493C160.772 63.1825 162.055 60.5221 163.87 59.6354C170.244 56.6204 182.858 53.5167 194.587 52.1422C198.128 51.7431 218.356 52.2752 220.878 52.8516ZM232.121 74.4445C232.431 75.3756 232.652 76.6171 232.608 77.1935C232.608 77.9916 232.298 77.6812 231.501 75.9076C230.926 74.6662 230.306 73.07 230.173 72.3606C229.863 71.2078 229.863 71.1634 230.749 71.9615C231.236 72.3606 231.855 73.5134 232.121 74.4445ZM165.685 132.838C172.103 138.647 179.229 143.746 191.046 150.973C202.554 158.023 205.962 160.727 210.875 166.624L213.177 169.418V172.832C213.177 175.359 213.575 177.753 214.726 182.01C215.611 185.202 216.497 188.439 216.718 189.281L217.116 190.789L207.512 190.479C195.251 190.035 192.33 189.725 191.887 188.882C191.356 187.818 184.186 173.187 184.053 172.787C183.743 172.122 188.878 172.566 194.72 173.763C198.04 174.472 200.784 174.96 200.784 174.871C200.784 174.827 199.722 174.118 198.482 173.364C197.199 172.566 195.074 171.147 193.791 170.127C191.002 167.999 190.869 166.935 193.348 165.605C194.941 164.762 195.074 164.762 197.863 165.472C199.456 165.871 202.51 166.89 204.723 167.733C206.936 168.575 208.751 169.063 208.751 168.797C208.751 167.955 200.563 160.195 198.615 159.176C196.225 157.978 193.481 157.934 191.179 159.087C190.206 159.575 186.886 162.279 183.699 165.117C180.557 167.91 177.901 170.26 177.768 170.26C177.635 170.26 176.352 168.221 174.847 165.693C169.934 157.491 164.667 148.845 160.285 141.883C157.895 138.115 155.461 134.124 154.841 133.016C153.779 131.109 153.911 131.198 157.674 134.834C161.701 138.78 166.703 142.77 169.713 144.455C171.04 145.209 170.421 144.366 166.791 140.642C162.41 136.119 157.851 130.001 156.567 126.897C156.08 125.744 156.08 125.212 156.479 124.325C156.965 123.173 157.01 123.173 159.621 126.454C161.037 128.227 163.782 131.109 165.685 132.838ZM229.332 136.652C234.422 141.396 238.76 147.16 246.727 159.708L250.312 165.339L243.053 161.747C234.157 157.358 232.696 157.092 229.111 159.264C226.544 160.816 223.092 164.762 220.967 168.575L219.683 170.881L222.251 169.418C226.367 167.068 230.218 165.782 233.272 165.738C235.883 165.693 240.752 166.802 241.814 167.689C242.522 168.265 244.779 175.137 246.373 181.788C248.055 188.749 248.055 188.794 246.284 189.06C243.939 189.459 233.803 190.168 225.88 190.479L218.533 190.789L218.311 189.725C217.47 186.089 215.833 172.965 216.098 171.812C216.452 170.038 218.356 166.314 220.878 162.368C227.562 151.993 229.2 142.504 225.57 135.144C224.021 131.952 224.552 132.173 229.332 136.652ZM150.326 137.538C151.521 139.09 152.539 140.465 152.539 140.598C152.539 140.775 151.477 140.42 150.238 139.755C146.741 138.07 142.581 138.115 138.995 139.888C137.491 140.598 135.941 141.13 135.455 141.041C134.923 140.908 136.827 139.8 140.81 137.849C144.218 136.164 147.228 134.834 147.538 134.789C147.848 134.789 149.087 136.031 150.326 137.538ZM149.707 143.923C153.513 145.741 156.7 150.485 158.028 156.249C158.47 158.156 158.736 161.348 158.736 165.073C158.736 170.438 159.046 173.896 159.842 176.955L160.108 178.108L155.416 178.33C148.689 178.64 148.644 179.261 155.283 180.414C170.199 183.074 175.334 184.67 178.255 187.597C181.53 190.878 180.999 196.464 177.193 198.637C176.263 199.169 175.599 199.169 173.254 198.77C155.151 195.489 150.326 194.912 150.99 195.977C151.344 196.553 158.293 198.726 166.039 200.632C174.67 202.76 176.352 203.558 177.724 206.352C178.742 208.347 178.786 208.702 178.299 210.963C177.68 213.845 176.13 215.707 174.006 216.106C173.121 216.284 168.031 215.663 161.259 214.599C155.062 213.623 149.22 212.825 148.29 212.825L146.564 212.87L147.715 213.49C149.574 214.51 158.559 217.082 164.49 218.323C173.563 220.23 174.227 220.629 174.227 224.265C174.227 227.014 173.165 229.009 171.217 229.94C169.668 230.694 169.093 230.694 160.064 229.984C154.841 229.541 149.264 229.231 147.671 229.231L144.794 229.275L146.962 230.162C149.795 231.314 153.336 232.113 159.4 232.955C166.703 234.019 167.057 234.063 167.278 234.773C167.411 235.083 167.323 236.059 167.101 236.945C165.596 242.399 159.267 243.951 144.351 242.532C132.666 241.424 128.461 239.162 123.504 231.137C122.309 229.275 121.291 227.989 121.202 228.255C120.848 229.319 122.088 233.975 123.504 236.945C124.345 238.675 124.92 240.226 124.743 240.404C124.566 240.537 122.84 241.113 120.848 241.601C107.039 245.104 94.0261 242.31 86.6345 234.241C81.4559 228.61 79.6855 221.915 81.6772 215.53C82.828 211.761 84.2887 209.5 87.7853 206.086C92.5212 201.43 97.744 199.302 105.401 198.814C109.65 198.548 116.201 199.568 120.583 201.209L122.663 202.007L122.53 205.82C122.265 212.559 123.681 220.496 125.673 223.156C126.115 223.777 126.204 223.067 126.204 219.166C126.248 214.2 126.868 212.027 128.461 211.14C129.125 210.786 129.125 210.475 128.24 207.992C126.602 203.204 127.178 200.41 130.63 196.952L132.932 194.602L132.356 192.962C131.427 190.39 131.604 187.153 132.755 185.114C133.994 182.897 137.402 180.813 141.872 179.438C146.254 178.064 146.653 177.133 142.669 177.487L139.792 177.753L140.854 175.803C141.474 174.738 142.226 172.477 142.625 170.748C143.422 166.757 143.023 163.742 140.5 156.116C138.199 149.111 138.022 146.051 139.748 144.278C141.917 142.105 145.635 141.972 149.707 143.923ZM132.135 144.588C133.507 145.076 133.507 145.076 133.507 148.18C133.507 150.53 133.994 152.924 135.322 157.712C137.004 163.565 137.136 164.407 136.959 168.176C136.738 173.63 135.809 175.27 131.205 178.507L127.753 180.946L124.743 180.059C123.106 179.616 120.893 179.084 119.83 178.951L117.927 178.64L120.45 181.434C122.53 183.739 125.053 187.552 124.522 187.552C124.433 187.552 123.194 186.976 121.734 186.266C117.75 184.316 112.262 182.719 107.659 182.187C104.162 181.744 102.701 181.788 98.3637 182.409C93.672 183.074 86.3689 185.247 84.9083 186.355C83.4477 187.508 84.2001 186.089 86.7673 182.852C93.4064 174.472 100.09 169.817 106.375 169.107C109.075 168.841 109.252 168.753 108.455 168.176C106.641 166.757 104.339 166.137 100.355 165.871L96.1949 165.605L98.0096 163.299C103.852 155.939 110.004 151.904 123.991 146.273C129.833 143.923 130.099 143.879 132.135 144.588ZM251.861 150.441L256.287 152.303L258.899 156.294C261.289 159.974 268.105 173.275 268.725 175.403C268.946 176.246 268.725 176.379 266.644 176.601C265.361 176.778 261.599 176.911 258.279 176.911H252.26L251.33 173.63C250.799 171.812 250.356 170.26 250.356 170.127C250.356 169.994 251.773 170.305 253.543 170.748C255.269 171.191 256.774 171.502 256.907 171.413C257.305 171.014 250.799 158.289 247.568 153.101C245.709 150.086 244.16 147.559 244.16 147.426C244.16 147.204 244.691 147.381 251.861 150.441ZM273.593 158.023C288.598 163.787 298.247 177.753 299.708 195.799C300.239 202.494 298.38 216.239 296.255 221.25C295.636 222.757 295.591 222.757 295.37 221.693C295.237 221.072 294.839 217.436 294.44 213.623C293.068 200.233 290.236 189.725 285.278 179.66C283.774 176.645 282.49 174.295 282.357 174.384C282.269 174.517 282.578 176.867 283.065 179.66C283.597 182.409 284.128 186.887 284.26 189.547C284.57 194.691 284.172 200.765 283.552 200.144C283.375 199.923 281.959 196.154 280.454 191.764C275.408 177.133 272.089 169.373 267.043 160.328C265.405 157.446 264.077 155.008 264.077 154.963C264.077 154.742 270.141 156.693 273.593 158.023ZM168.783 167.289C172.457 173.719 175.688 180.015 175.422 180.281C175.334 180.369 174.094 180.059 172.634 179.571C171.217 179.128 169.181 178.507 168.119 178.241C164.888 177.399 163.959 174.738 163.383 164.496C163.25 161.925 163.029 159.22 162.896 158.51C162.675 157.313 162.808 157.446 164.091 159.397C164.844 160.594 166.968 164.186 168.783 167.289ZM270.185 179.527C271.071 180.059 272.974 186.399 272.354 186.71C272.044 186.887 269.256 187.109 266.069 187.286C262.927 187.419 258.81 187.685 256.951 187.818L253.587 188.129L252.835 184.183C252.437 182.054 252.26 180.148 252.481 179.926C252.658 179.749 255.712 179.527 259.209 179.438C262.75 179.394 266.512 179.261 267.618 179.217C268.725 179.172 269.876 179.305 270.185 179.527ZM110.934 188.838C111.288 189.281 112.881 190.301 114.475 191.099C117.086 192.385 121.335 195.445 121.025 195.755C120.937 195.844 119.211 195.4 117.13 194.779C111.819 193.183 103.055 193.05 97.9653 194.558C84.3772 198.46 75.0823 208.923 72.4267 223.245C72.1611 224.708 71.9841 228.344 72.0726 231.359C72.1611 234.329 72.1611 236.768 72.1168 236.768C71.9398 236.768 70.0808 232.379 69.0628 229.541C67.6022 225.506 67.2481 219.831 68.1333 215.619C71.3644 200.455 83.0936 190.257 100.09 187.818C100.842 187.73 103.409 187.73 105.844 187.818C109.429 187.996 110.403 188.173 110.934 188.838ZM277.71 195.622C281.118 205.243 282.711 210.874 284.26 218.589C285.146 222.846 286.119 227.501 286.429 228.92C287.005 231.403 287.005 231.536 285.987 232.689C285.411 233.354 284.88 233.797 284.747 233.664C284.615 233.531 284.216 230.561 283.818 227.014C282.578 215.929 279.834 204.357 276.382 195.356L275.01 191.853L270.761 192.163C268.415 192.341 262.218 192.829 256.996 193.316C228.89 195.932 206.494 196.243 188.081 194.38C186.133 194.203 185.293 193.893 185.293 193.494C185.293 192.696 185.425 192.696 200.607 193.582C216.364 194.469 234.776 193.937 255.446 191.986C266.556 190.922 268.459 190.789 272.089 190.7L275.939 190.656L277.71 195.622ZM270.274 195.311C272.841 196.642 273.151 198.903 271.159 200.942C270.008 202.051 269.566 202.228 268.371 202.007C265.14 201.342 264.077 197.75 266.467 195.711C267.884 194.469 268.503 194.425 270.274 195.311ZM192.551 198.681C194.012 200.366 194.012 201.918 192.596 203.292C191.489 204.445 189.409 204.756 187.992 203.958C186.62 203.248 185.956 201.076 186.62 199.524C187.727 196.863 190.692 196.464 192.551 198.681ZM273.239 207.283L274.833 207.948L274.523 212.515C273.948 220.895 273.815 221.737 272.664 222.181C272 222.402 271.602 222.934 271.557 223.555C271.469 226.482 270.451 234.595 270.185 234.551C269.964 234.551 269.389 234.551 268.902 234.551C267.928 234.551 267.928 234.507 268.238 228.299C268.548 222.181 268.503 222.003 267.574 221.338C266.644 220.718 266.644 220.451 266.91 216.195C267.264 210.475 267.795 208.347 268.99 207.372C270.141 206.44 271.159 206.396 273.239 207.283ZM234.954 211.052C236.901 211.628 239.07 213.357 239.955 215.087C240.398 215.929 240.619 217.702 240.619 220.54C240.619 224.752 240.619 224.797 239.114 226.482C238.273 227.368 237.432 228.831 237.211 229.674C236.68 231.713 234.732 232.201 229.686 231.536C224.552 230.827 224.242 230.605 224.242 227.634C224.242 224.575 223.401 222.89 221.321 221.915C218.223 220.451 213.089 222.092 208.839 225.905C207.6 227.014 206.405 227.9 206.184 227.9C205.387 227.9 204.325 226.038 204.325 224.664C204.325 219.919 212.867 213.091 220.967 211.318C224.552 210.564 232.608 210.431 234.954 211.052ZM255.225 212.737C257.394 213.934 258.545 216.372 258.545 219.919C258.5 224.841 256.686 227.147 252.392 227.723C249.781 228.122 247.878 227.324 247.302 225.639C246.904 224.442 246.948 224.353 248.055 224.087C250.976 223.466 250.799 223.733 250.799 219.52V215.619L248.984 215.353C246.86 215.087 246.683 214.953 247.081 213.978C247.834 211.983 252.481 211.318 255.225 212.737ZM249.383 218.279C249.471 218.767 249.427 219.786 249.294 220.584C249.029 222.048 248.984 222.048 245.886 222.358C244.16 222.535 242.699 222.624 242.611 222.535C242.522 222.447 242.345 221.205 242.168 219.786L241.858 217.215L245.532 217.348C248.719 217.481 249.25 217.614 249.383 218.279Z" fill="#002F6C"/>
<path d="M204.856 55.8657C203.573 57.063 203.617 57.8611 205.033 59.28C206.14 60.3886 206.228 60.4329 211.097 60.1225C216.807 59.8121 218.622 60.1225 221.676 62.0292C224.154 63.5812 224.287 63.6255 224.066 62.8274C223.933 62.5613 223.756 61.7632 223.623 61.0537C223.225 59.3687 220.525 56.4422 218.799 55.9101C218.002 55.644 214.771 55.3336 211.628 55.2006C206.228 54.9789 205.786 55.0232 204.856 55.8657Z" fill="#023270"/>
<path d="M181.133 57.4621C173.033 58.748 171.307 59.5905 169.625 63.0492C169.005 64.3351 168.385 66.1531 168.208 67.1286L167.898 68.8579L170.244 66.9956C174.493 63.6256 175.821 63.1822 182.859 62.5614C187.993 62.118 189.454 61.5416 190.162 59.8566C190.693 58.5707 190.162 56.7527 189.277 56.7527C189.1 56.7527 188.657 56.664 188.303 56.5753C187.993 56.4866 184.762 56.8857 181.133 57.4621Z" fill="#023270"/>
<path d="M211.053 64.3796C209.15 64.6899 206.538 66.1975 206.538 66.9956C206.538 67.2172 206.361 67.3946 206.14 67.3946C205.874 67.3946 205.653 66.6408 205.565 65.7097L205.432 64.0692L204.458 65.6211C202.82 68.1484 203.263 71.6954 206.14 79.0557L207.114 81.6273L206.228 82.8244C204.502 85.1744 203.573 85.3517 197.199 84.3763C195.296 84.1103 191.711 85.7064 192.065 86.6376C192.242 87.0809 191.578 87.3913 189.852 87.746C188.48 88.012 187.285 88.1451 187.196 88.0564C187.108 88.012 187.329 87.347 187.727 86.6376C188.081 85.9281 188.391 84.465 188.391 83.3565V81.3613L185.204 84.731C183.124 86.9036 180.911 88.7215 179.052 89.7413C174.936 92.0025 174.095 93.0223 173.874 96.126C173.741 98.3429 173.874 99.008 175.201 101.491C177.105 105.215 177.769 105.437 177.769 102.333C177.769 99.8061 178.654 97.9882 179.849 97.9882C180.203 97.9882 181.796 99.1854 183.39 100.649C188.48 105.304 193.835 107.122 201.448 106.723C209.637 106.324 212.956 104.373 216.231 97.9882C218.356 93.9091 219.374 93.111 220.658 94.3968C221.587 95.3279 222.384 99.7174 221.808 100.693C221.587 101.048 221.631 101.136 221.985 100.915C222.251 100.737 223.003 99.5401 223.667 98.2986C224.641 96.4364 224.862 95.3723 224.907 92.8006C224.907 88.8101 224.154 87.6573 220.348 85.7951C218.843 85.0414 216.586 83.4008 215.258 82.115C213.974 80.8292 212.779 79.9424 212.602 80.0754C212.027 80.6518 212.292 83.1348 213 84.1546C213.576 84.997 213.576 85.13 213 85.13C211.54 85.13 210.964 84.5536 210.964 83.1791C210.964 82.248 210.3 80.7405 208.973 78.7009C206.892 75.5972 205.387 71.4294 205.83 70.2323C206.14 69.3898 208.663 68.3257 211.141 68.0153C212.425 67.838 213.841 67.971 215.346 68.5031C217.559 69.2125 218.046 69.7002 217.161 70.2766C216.143 70.8974 216.763 71.4294 218.135 71.119C219.817 70.7643 222.472 69.5672 222.472 69.1681C222.472 68.6361 219.595 66.1531 218.135 65.4437C216.099 64.3796 213.266 63.9805 211.053 64.3796ZM214.505 94.7959C214.505 95.0175 214.063 95.594 213.487 96.126C210.699 98.7863 199.634 100.649 192.065 99.7618C188.303 99.3627 184.85 98.2543 184.85 97.5448C184.85 97.3675 186.577 97.1015 188.745 96.9241C190.87 96.7468 194.676 96.3034 197.243 95.9043C201.404 95.2836 207.423 94.7515 212.646 94.5298C213.664 94.4855 214.505 94.6185 214.505 94.7959Z" fill="#023270"/>
<path d="M181.62 66.5521C178.743 67.2172 176.397 68.6805 171.174 73.0259C171.085 73.0703 171.085 73.292 171.218 73.425C171.617 73.7797 179.23 74.9326 179.495 74.6666C179.628 74.5336 179.274 74.0458 178.654 73.6024L177.592 72.8042L179.097 71.8731C181.133 70.6315 184.806 69.922 187.285 70.2768C189.542 70.6315 189.719 70.3654 188.303 68.8135L187.285 67.7493L189.188 67.9267C191.357 68.104 191.578 67.705 189.719 66.7294C188.303 66.02 184.364 65.887 181.62 66.5521Z" fill="#023270"/>
<path d="M144.351 79.8097C143.599 80.6078 143.599 80.7852 144.351 83.5785L145.148 86.5048L145.856 84.3766C146.697 81.8493 147.715 81.4946 149.662 83.0908L150.99 84.1549L149.972 85.9284C147.848 89.7416 149.131 93.5103 153.026 95.0622C155.637 96.1263 155.947 95.4612 154.265 92.7122C152.893 90.4953 152.849 90.318 153.336 88.4114C153.823 86.6379 153.778 86.1501 153.07 84.5539C151.875 81.8493 148.512 78.9229 146.653 78.9229C145.723 78.9229 144.838 79.2777 144.351 79.8097Z" fill="#023270"/>
<path d="M209.858 109.117C205.609 111.157 199.28 111.91 194.898 110.891C193.216 110.492 193.216 110.492 194.013 111.378C197.642 115.413 207.645 115.502 210.921 111.6C211.363 111.024 212.868 107.698 212.647 107.787C212.558 107.787 211.319 108.407 209.858 109.117Z" fill="#023270"/>
<path d="M221.764 175.137C221.233 175.359 220.481 175.98 220.082 176.556C217.737 179.882 222.074 184.316 225.26 181.788C228.27 179.394 225.26 173.718 221.764 175.137Z" fill="#023270"/>
<path d="M113.369 155.982C113.635 156.204 114.608 156.647 115.582 156.958C120.451 158.51 125.054 161.835 128.108 166.092C129.214 167.644 130.188 168.841 130.277 168.753C130.365 168.708 130.1 167.555 129.701 166.225C127.798 159.707 123.239 156.115 116.467 155.716C114.121 155.583 113.059 155.672 113.369 155.982Z" fill="#023270"/>
<path d="M254.562 24.2978L253.19 28.5986L248.498 28.8203L243.806 29.042L247.524 31.7023C249.56 33.1655 251.242 34.5843 251.242 34.8504C251.242 35.0721 250.667 37.0673 249.914 39.2399C249.206 41.4125 248.586 43.2304 248.586 43.3634C248.586 43.4521 250.313 42.2993 252.393 40.8361C256.775 37.8211 255.845 37.7324 261.334 41.5898C262.838 42.654 264.078 43.4521 264.078 43.3634C264.078 43.2747 263.502 41.4125 262.75 39.2399C262.042 37.0673 261.422 35.0721 261.422 34.7617C261.422 34.4513 263.015 33.0325 264.963 31.6137L268.548 29.042L263.812 28.8203L259.076 28.5986L257.837 24.6525C257.173 22.5242 256.465 20.5733 256.244 20.396C256.066 20.1743 255.27 21.9478 254.562 24.2978Z" fill="#0164AE"/>
<path d="M113.546 24.6969L112.041 29.0421L107.394 29.2638L102.746 29.4855L106.066 31.9241C107.88 33.2542 109.562 34.4957 109.739 34.6287C109.961 34.8061 109.518 36.8457 108.721 39.1956C107.925 41.5899 107.394 43.5851 107.438 43.6738C107.526 43.7181 109.252 42.6097 111.288 41.1022L114.962 38.4418L118.901 41.1465C121.114 42.6097 122.885 43.8068 122.885 43.7625C122.885 43.7181 122.265 41.7672 121.557 39.4616C120.849 37.156 120.229 35.1165 120.229 34.8948C120.229 34.7174 121.823 33.3872 123.814 31.9241L127.4 29.2638H122.752H118.105L116.688 24.8299C115.936 22.3913 115.272 20.396 115.183 20.396C115.095 20.396 114.343 22.3469 113.546 24.6969Z" fill="#0164AE"/>
<path d="M284.811 41.1007L283.35 45.6676H278.481H273.657L277.463 48.5496C279.588 50.1457 281.314 51.6976 281.314 52.008C281.314 52.4957 279.543 58.2154 278.835 59.9889C278.658 60.521 279.986 59.7672 282.376 58.0824C284.456 56.5748 286.448 55.422 286.758 55.5551C287.024 55.6437 288.75 56.7965 290.564 58.038C292.379 59.2795 293.928 60.255 293.973 60.1663C294.061 60.1219 293.486 58.0824 292.733 55.7324C291.981 53.3381 291.45 51.3429 291.538 51.2542C291.627 51.1655 293.397 49.8797 295.389 48.3722L299.107 45.6676H294.238H289.369L287.82 41.1007L286.315 36.5781L284.811 41.1007Z" fill="#0164AE"/>
<path d="M83.1828 41.3239L81.8992 45.4474L77.0748 45.669L72.2061 45.8907L76.101 48.6841C78.2256 50.2359 79.9518 51.5217 79.9518 51.5661C79.9518 51.6104 79.3321 53.517 78.6239 55.8226C77.9157 58.1282 77.3846 60.0791 77.4289 60.1678C77.5174 60.2121 79.1551 59.1923 81.1025 57.8622C83.0058 56.532 84.732 55.4235 84.9533 55.4235C85.1746 55.4235 86.945 56.532 88.8482 57.8622C90.7515 59.1923 92.3891 60.3008 92.5219 60.3008C92.6547 60.3008 92.0793 58.3055 91.2383 55.8669L89.7335 51.4331L93.5842 48.6841L97.4349 45.8907L92.5662 45.669L87.7417 45.4474L86.3696 41.3239C85.6614 39.1069 84.909 37.2447 84.7762 37.2447C84.5992 37.2447 83.891 39.1069 83.1828 41.3239Z" fill="#0164AE"/>
<path d="M125.32 46.2898C110.979 53.2953 98.5416 62.2074 86.6796 74.0901C55.0772 105.615 41.2677 150.441 50.0757 192.873C50.9166 196.952 52.6428 203.16 53.8821 206.441L54.8116 208.924L56.228 205.643C57.7328 202.229 60.1672 197.884 63.0442 193.627L64.7704 191.055L63.9294 186.976C60.1229 168.31 60.6098 150.308 65.5228 132.528C67.6473 124.769 69.7719 119.227 73.3128 111.955C79.5093 99.2301 86.3255 89.8304 96.9925 79.1004C106.11 69.9223 115.007 63.1385 126.072 56.9754L130.764 54.3151L131.074 50.103C131.206 47.7974 131.428 45.3587 131.516 44.6493C131.649 43.9842 131.56 43.4522 131.383 43.4522C131.206 43.4522 128.506 44.738 125.32 46.2898Z" fill="#013F84"/>
<path d="M251.995 50.28C252.172 52.2753 251.995 53.7384 251.464 55.379C251.065 56.6648 250.8 57.7732 250.888 57.9063C251.021 57.9949 252.659 59.0591 254.606 60.2119C280.012 75.7747 300.195 100.516 310.198 128.36C312.632 135.055 315.598 147.116 316.616 154.077C317.722 162.013 317.722 181.079 316.616 188.262C315.819 193.139 315.819 193.183 316.793 195.356C318.121 198.415 321.927 207.992 323.255 211.717C325.424 217.658 325.114 217.481 326.575 213.269C328.212 208.436 330.16 200.588 331.443 193.449C332.329 188.395 332.461 186.4 332.461 174.916C332.461 161.659 332.329 160.506 330.204 149.066C328.035 137.45 323.786 124.902 318.077 113.507C305.551 88.3225 285.368 66.7296 260.67 52.0536C257.395 50.1027 252.349 47.4423 251.95 47.4423C251.862 47.4423 251.906 48.7282 251.995 50.28Z" fill="#013F84"/>
<path d="M59.0161 61.1875C58.8834 61.5422 58.2194 63.5817 57.5555 65.6657C56.3605 69.4344 56.3162 69.5231 54.7671 69.7892C53.8819 69.9222 51.8016 70.0552 50.1639 70.0552C48.482 70.0552 47.2427 70.2325 47.3755 70.4542C47.5083 70.6316 49.0574 71.7844 50.7836 72.9815C52.5098 74.1343 54.0146 75.3315 54.1032 75.5975C54.1917 75.8192 53.7048 77.8144 52.9524 80.0314C52.2442 82.204 51.6245 84.1105 51.6245 84.3322C51.6245 84.5096 53.3507 83.4454 55.431 81.9823L59.2375 79.2333L63.1767 81.9823C65.3455 83.4898 67.1159 84.6426 67.1159 84.5096C67.1159 84.4209 66.5405 82.5587 65.7881 80.3861C65.0799 78.2578 64.4603 76.2626 64.4603 75.9522C64.4603 75.6418 66.0094 74.223 67.8684 72.8485C71.0994 70.4986 71.2322 70.2769 70.2142 70.0108C69.5946 69.8335 67.5585 69.7005 65.6996 69.6561C63.7963 69.6118 62.2472 69.5675 62.2472 69.4788C62.1587 68.4147 59.1489 60.6997 59.0161 61.1875Z" fill="#0164AE"/>
<path d="M311.854 65.7532L310.305 70.2757L305.657 70.4974L301.01 70.7191L303.223 72.2266C304.462 73.069 306.144 74.3105 307.074 75.0199L308.667 76.2614L307.162 80.5622C306.365 82.9122 305.79 84.9518 305.878 85.0404C305.967 85.1291 307.737 84.0207 309.818 82.5131L313.58 79.7641L317.254 82.4245C319.29 83.8876 320.972 84.9074 321.06 84.6857C321.149 84.464 320.573 82.6018 319.865 80.4736C319.113 78.3453 318.493 76.4831 318.493 76.3057C318.493 76.1284 320.131 74.7982 322.122 73.3351L325.752 70.7191L321.237 70.5861C316.059 70.453 316.722 71.0294 314.642 64.8664L313.403 61.2306L311.854 65.7532Z" fill="#0164AE"/>
<path d="M37.9032 231.492C25.3773 232.068 12.4088 233.62 3.42379 235.66L0.28125 236.414V243.242V250.114L4.84015 249.848C11.9219 249.449 31.1313 248.784 45.6489 248.474C52.952 248.296 59.7682 248.03 60.7862 247.897L62.6452 247.631L60.0338 243.685C57.6437 240.138 55.2212 235.87 55.2212 234.274C54.2253 233.11 52.0225 230.871 37.9032 231.492Z" fill="#43802E"/>
<path d="M326.151 231.534C324.115 231.8 322.566 232.155 322.698 232.332C322.831 232.554 322.743 232.776 322.477 232.864C322.256 232.909 320.707 234.727 319.069 236.855C317.387 238.983 314.599 242.353 312.784 244.304L309.553 247.851H311.677C316.059 247.851 360.674 249.181 370.5 249.624C376.121 249.846 381.433 250.068 382.362 250.068H384L383.911 242.885L383.779 235.702L382.451 235.347C381.743 235.17 378.335 234.594 374.926 234.106C356.647 231.49 335.844 230.426 326.151 231.534Z" fill="#43802E"/>
<path d="M332.269 218.144L332.084 218.673C332.084 218.673 330.601 220.524 329.23 222.639C327.821 224.754 325.485 228.102 323.966 230.041L321.923 233.441L323.039 233.566C326.709 233.566 364.076 234.888 372.306 235.328C377.014 235.549 381.462 235.769 382.24 235.769H383.612C383.612 235.769 387.406 227.507 332.269 218.144Z" fill="#7CBF44"/>
<path d="M52.732 218.645C52.732 218.645 52.2011 221.675 52.2341 223.633C52.3065 227.933 55.2217 234.232 55.2217 234.232H54.7113C51.3965 234.232 17.6455 235.554 10.2123 235.995C5.95993 236.215 1.94196 236.436 1.23881 236.436H-5.5172e-05C-5.5172e-05 236.436 2.93114 228.007 52.732 218.645Z" fill="#7CBF44"/>
<path d="M152.318 254.203C110.226 255.223 67.9565 257.262 29.9362 260.233C8.95638 261.829 6.56628 262.184 17.543 261.918C22.5445 261.829 42.0637 261.43 60.9189 261.031L95.2213 260.322L101.197 262.539C125.717 271.628 150.68 276.505 179.096 277.747C213.531 279.299 249.162 273.668 278.684 262.14L284.216 259.967L299.929 260.411C332.195 261.297 377.961 262.228 374.952 261.918C353.175 259.568 295.547 256.065 254.561 254.646C237.255 254.026 172.014 253.76 152.318 254.203Z" fill="#013F84"/>
</svg>
