<svg width="384" height="320" viewBox="0 0 384 320" fill="none" xmlns="http://www.w3.org/2000/svg">
<path d="M173.11 1.06432C164.79 3.23706 161.426 5.14375 158.903 9.00146C157.974 10.4204 156.381 11.8837 154.168 13.3469C141.333 21.7718 135.269 34.6309 135.269 53.4317V58.6196L132.88 61.2358C126.285 68.5521 125.71 75.3807 131.375 79.0611C132.304 79.6375 133.942 80.3913 135.004 80.7017L136.907 81.2338L137.571 84.6481C139.341 93.5608 146.201 104.779 151.601 107.528C153.592 108.548 153.681 108.637 154.477 111.918L155.318 115.288L153.327 117.062C150.937 119.146 149.609 121.319 147.927 125.841C146.511 129.522 147.75 128.635 134.384 135.641C129.649 138.124 123.364 141.139 120.399 142.336C101.766 149.786 94.0651 156.215 83.7087 172.888C82.0269 175.637 76.9372 183.397 72.4671 190.137C67.9971 196.921 63.7483 203.705 62.9959 205.301C58.2603 215.722 58.3045 227.251 63.1287 237.094C64.9875 240.863 68.2626 245.386 70.387 247.027L71.582 247.958L93.357 247.47C105.351 247.204 123.497 246.982 133.72 246.982C143.944 246.982 161.426 246.849 172.579 246.672C192.274 246.406 192.805 246.362 190.946 245.652C186.609 243.967 183.599 242.415 180.147 240.065C176.031 237.36 175.19 236.474 177.536 237.493C182.272 239.444 196.124 242.016 207.41 242.992C218.386 243.923 217.59 243.746 217.59 245.475V246.982H219.803C222.325 246.982 222.104 247.47 222.901 239.71C223.166 237.272 223.476 235.188 223.564 235.099C223.653 234.966 225.954 235.143 228.61 235.409C231.31 235.72 234.231 235.897 235.16 235.808C237.063 235.675 236.975 235.055 236.178 241.662C235.514 247.293 235.381 246.982 237.948 246.982C240.073 246.982 240.117 246.938 240.427 245.431C240.692 243.879 240.737 243.879 242.994 243.879C244.233 243.879 247.862 243.568 251.005 243.213C258.882 242.327 258.219 242.194 258.396 244.632L258.528 246.761L262.6 247.16C266.849 247.559 268.796 247.293 267.601 246.495C267.247 246.273 266.097 245.874 265.034 245.608L263.131 245.076L263.264 240.376L263.397 235.675L265.831 235.409C268.221 235.143 273.753 235.72 274.284 236.252C274.683 236.651 273.93 242.903 273.355 244.189C272.868 245.298 272.558 245.386 271.585 244.765C271.098 244.499 270.921 243.568 270.921 241.795V239.223L269.283 238.824C267.026 238.247 266.274 238.957 266.274 241.706V243.879L268.309 244.366C269.637 244.721 270.213 245.076 270.08 245.475C269.726 246.406 270.788 246.938 273.842 247.249C276.586 247.515 276.851 247.47 280.215 245.741C282.162 244.765 284.995 243.036 286.544 241.928C289.022 240.065 289.288 239.977 289.288 240.863C289.288 241.395 288.624 243.036 287.783 244.544L286.278 247.337L293.537 247.648L300.795 247.958L303.982 245.386C308.142 241.972 314.249 235.055 318.144 229.29L321.286 224.723L320.711 222.861C319.251 217.894 310.222 194.127 305.619 183.042C301.282 172.622 291.766 161.98 282.207 156.836C278.976 155.062 274.506 153.333 267.38 151.072C264.725 150.229 256.847 147.081 249.898 144.11L237.284 138.7L232.859 134.178C228.875 130.098 223.83 125.886 222.369 125.398C221.971 125.265 222.812 123.536 224.804 120.254C231.619 109.08 235.337 97.4185 234.718 89.1266C234.54 86.7765 234.673 85.0915 235.16 83.4066C235.647 81.6329 235.78 80.1253 235.558 77.6422C235.16 73.0306 234.629 71.39 232.859 68.7295C232.018 67.4436 231.31 66.3794 231.31 66.3351C231.31 66.2464 232.372 65.9803 233.655 65.6699C236.798 64.9605 242.153 61.7679 244.543 59.1961C251.359 51.791 248.216 45.2285 235.647 40.75C231.974 39.4198 231.575 39.1537 231 37.7348C226.264 25.8512 219.271 15.0319 213.916 11.1742C210.951 9.09014 205.02 6.34097 201.347 5.40979C198.957 4.78901 197.629 4.16823 196.036 2.79364C193.38 0.576567 190.504 0.000126749 182.581 0.000126749C178.288 0.0444683 176.208 0.266176 173.11 1.06432ZM191.92 2.92667C193.956 3.32574 200.285 13.2139 201.435 17.8698L201.745 19.067H197.85C190.813 19.067 180.147 20.885 178.819 22.3039C178.421 22.703 178.554 24.3436 179.528 29.2655C181.121 37.6018 181.298 39.0207 180.9 39.0207C180.723 39.0207 179.926 35.9611 179.129 32.2364C175.854 17.2046 172.048 8.5137 167.888 6.65136L166.162 5.85321L169.215 4.96638C176.474 2.7493 180.324 2.2172 186.388 2.48325C188.822 2.61628 191.3 2.79364 191.92 2.92667ZM205.197 9.62224C208.738 10.8195 210.641 12.0167 213.739 15.0319C218.608 19.7321 222.856 26.7381 225.733 34.9413L226.884 38.2225L224.051 37.9121C218.386 37.2914 218.519 37.3357 216.97 33.9214C216.218 32.1921 215.2 30.108 214.713 29.2655C213.518 27.0928 213.341 28.3787 214.226 32.6355C214.624 34.4978 214.934 36.1828 214.934 36.4045C214.934 36.6262 213.739 36.8036 212.279 36.8036C209.889 36.8036 209.623 36.7149 209.402 35.7837C207.1 25.3635 205.153 19.067 202.321 12.9922C201.214 10.6421 200.329 8.64673 200.329 8.55804C200.329 8.29199 202.807 8.82409 205.197 9.62224ZM166.073 14.2781C167.888 16.3178 169.481 19.6878 171.473 25.7182C172.8 29.6646 175.279 39.9075 175.013 40.1292C174.925 40.1736 173.287 40.6613 171.34 41.1491C169.348 41.6812 166.029 42.701 163.904 43.4105L160.01 44.7407L159.611 43.6765C159.39 43.1001 158.859 40.8387 158.461 38.7103C158.062 36.5819 157.708 34.7639 157.62 34.6752C157.443 34.4978 156.646 39.7301 156.248 43.3218L155.982 46.1153L151.733 48.1107C149.432 49.2192 147.44 50.0174 147.308 49.8844C147.175 49.7513 147.042 47.0908 147.042 43.9426C146.998 40.7943 146.865 38.3112 146.732 38.3999C146.201 38.7103 145.449 42.4793 145.183 46.3814C144.564 54.7619 143.369 50.9486 143.811 42.1689C144.342 32.6355 147.263 24.8314 152.176 19.6434C156.381 15.298 161.78 11.795 163.639 12.2827C164.082 12.4158 165.188 13.3026 166.073 14.2781ZM203.737 23.7228C204.888 28.2457 206.392 35.8724 206.171 36.1385C206.038 36.2715 204.622 36.3602 203.029 36.3602C200.373 36.3602 190.99 37.247 186.343 37.9565L184.485 38.2225L184.042 36.0941C182.581 29.1769 181.652 23.9002 181.829 23.7228C182.139 23.3681 188.335 22.1709 191.92 21.7718C193.734 21.5501 197.01 21.4171 199.178 21.4614L203.161 21.5058L203.737 23.7228ZM226.397 41.016C235.735 42.4793 241.622 45.1398 243.658 48.8202L244.764 50.8599L243.923 52.7222C242.861 55.1167 239.851 57.7772 236.178 59.6395C232.151 61.6792 230.513 61.9896 233.965 60.0829C237.417 58.1762 240.427 55.3384 241.091 53.343C242.064 50.3278 239.94 48.8645 231.664 46.8248C224.981 45.1842 219.847 44.6521 209.181 44.6077C199.886 44.5634 194.177 45.0068 185.724 46.3814C167.312 49.3966 146.245 57.6885 138.456 64.9161C135.801 67.3993 133.499 70.9466 133.499 72.4985C133.499 72.8976 133.278 73.075 133.012 72.8976C132.702 72.7202 132.614 71.9664 132.791 70.8579C133.72 65.0048 140.536 58.2649 150.671 53.0326C164.17 46.1597 180.236 41.9916 200.329 40.1736C205.02 39.7745 221.971 40.3066 226.397 41.016ZM220.865 52.8552L223.52 53.4317L224.317 56.5356C224.715 58.2206 225.468 62.7434 225.954 66.5568C226.618 71.7891 227.149 74.3165 228.212 76.9327C228.964 78.8394 229.849 81.5886 230.203 83.0962C232.018 90.8116 229.893 101.365 224.273 112.007C222.148 116.042 218.076 122.56 217.811 122.294C217.767 122.205 217.899 120.698 218.121 118.924C218.563 115.643 218.342 113.514 217.634 113.514C217.413 113.514 216.527 114.756 215.642 116.308C214.315 118.702 212.765 120.166 211.526 120.166C211.393 120.166 210.243 119.057 208.959 117.727C206.879 115.599 206.392 115.288 204.843 115.288C201.789 115.288 200.462 116.042 199.001 118.658C196.478 123.048 195.416 123.225 187.051 120.52C183.909 119.501 181.165 118.791 181.032 118.968C180.413 119.545 185.148 126.329 188.556 129.699C193.823 134.976 198.691 136.971 204.71 136.395C209.49 135.951 213.651 133.601 216.749 129.522L217.899 128.058L218.298 137.725C218.917 152.978 218.829 154.575 217.28 157.9C216.527 159.452 215.554 161.226 215.067 161.847L214.137 162.911L210.995 159.541C207.233 155.55 205.197 154.043 193.69 146.815C180.059 138.213 173.42 133.202 167.534 126.906C162.842 121.895 161.957 119.988 159.434 109.391C158.992 107.528 159.833 107.972 161.382 110.455C163.285 113.559 166.826 117.239 169.879 119.323C171.251 120.299 172.491 121.053 172.623 121.053C172.756 121.053 171.605 119.323 170.056 117.15C166.427 112.184 163.55 107.129 161.647 102.518L160.143 98.8374L159.346 100.522C158.284 102.651 155.894 104.025 154.035 103.582C151.468 102.917 145.936 95.6448 143.28 89.437C142.041 86.5992 141.377 82.4754 141.731 80.1696C142.174 77.3761 144.298 75.3807 146.865 75.3807C150.539 75.3807 153.548 78.4403 156.115 84.8255C157.443 88.1068 157.576 88.2841 158.682 88.0181C159.877 87.752 162.709 84.9142 162.709 84.0273C162.709 83.717 162.223 82.3867 161.603 81.0121C160.01 77.5091 159.302 71.7447 159.965 67.754C160.762 63.1868 162.046 60.5263 163.86 59.6395C170.233 56.6243 182.847 53.5204 194.575 52.1458C198.116 51.7467 218.342 52.2788 220.865 52.8552ZM232.106 74.4496C232.416 75.3807 232.637 76.6223 232.593 77.1987C232.593 77.9969 232.283 77.6865 231.487 75.9128C230.911 74.6713 230.292 73.075 230.159 72.3655C229.849 71.2126 229.849 71.1683 230.734 71.9664C231.221 72.3655 231.841 73.5184 232.106 74.4496ZM165.675 132.847C172.092 138.656 179.218 143.755 191.035 150.983C202.542 158.033 205.95 160.738 210.862 166.636L213.164 169.429V172.843C213.164 175.371 213.562 177.765 214.713 182.022C215.598 185.215 216.483 188.452 216.704 189.294L217.103 190.802L207.499 190.491C195.239 190.048 192.318 189.738 191.876 188.895C191.345 187.831 184.175 173.198 184.042 172.799C183.732 172.134 188.866 172.577 194.708 173.775C198.028 174.484 200.772 174.972 200.772 174.883C200.772 174.839 199.709 174.129 198.47 173.376C197.187 172.577 195.062 171.158 193.779 170.139C190.99 168.01 190.858 166.946 193.336 165.616C194.929 164.773 195.062 164.773 197.85 165.483C199.444 165.882 202.498 166.902 204.71 167.744C206.923 168.587 208.738 169.074 208.738 168.808C208.738 167.966 200.55 160.206 198.603 159.186C196.213 157.989 193.469 157.945 191.167 159.098C190.194 159.585 186.874 162.29 183.688 165.128C180.546 167.922 177.89 170.272 177.757 170.272C177.624 170.272 176.341 168.232 174.836 165.704C169.924 157.501 164.657 148.855 160.275 141.893C157.885 138.124 155.451 134.133 154.832 133.025C153.769 131.118 153.902 131.207 157.664 134.843C161.692 138.789 166.693 142.78 169.702 144.465C171.03 145.219 170.41 144.376 166.781 140.651C162.4 136.129 157.841 130.01 156.558 126.906C156.071 125.753 156.071 125.221 156.469 124.334C156.956 123.181 157 123.181 159.611 126.462C161.028 128.236 163.772 131.118 165.675 132.847ZM229.318 136.661C234.408 141.405 238.745 147.17 246.711 159.718L250.296 165.35L243.038 161.758C234.142 157.368 232.682 157.102 229.097 159.275C226.53 160.827 223.078 164.773 220.953 168.587L219.67 170.892L222.237 169.429C226.353 167.079 230.203 165.793 233.257 165.749C235.868 165.704 240.737 166.813 241.799 167.7C242.507 168.276 244.764 175.149 246.357 181.8C248.039 188.762 248.039 188.806 246.269 189.072C243.923 189.472 233.788 190.181 225.866 190.491L218.519 190.802L218.298 189.738C217.457 186.102 215.819 172.976 216.085 171.824C216.439 170.05 218.342 166.325 220.865 162.379C227.548 152.003 229.185 142.514 225.556 135.153C224.007 131.961 224.538 132.182 229.318 136.661ZM150.317 137.548C151.512 139.1 152.53 140.474 152.53 140.607C152.53 140.785 151.468 140.43 150.229 139.765C146.732 138.08 142.572 138.124 138.987 139.898C137.482 140.607 135.933 141.139 135.446 141.051C134.915 140.918 136.818 139.809 140.802 137.858C144.21 136.173 147.219 134.843 147.529 134.798C147.839 134.798 149.078 136.04 150.317 137.548ZM149.698 143.933C153.504 145.751 156.69 150.495 158.018 156.26C158.461 158.166 158.726 161.359 158.726 165.084C158.726 170.449 159.036 173.908 159.833 176.967L160.098 178.12L155.407 178.342C148.68 178.652 148.635 179.273 155.274 180.426C170.189 183.086 175.323 184.683 178.244 187.609C181.519 190.89 180.988 196.477 177.182 198.65C176.252 199.182 175.589 199.182 173.243 198.783C155.141 195.502 150.317 194.926 150.981 195.99C151.335 196.566 158.284 198.739 166.029 200.646C174.659 202.774 176.341 203.572 177.713 206.366C178.731 208.361 178.775 208.716 178.288 210.977C177.669 213.859 176.12 215.722 173.995 216.121C173.11 216.298 168.02 215.677 161.249 214.613C155.053 213.638 149.211 212.84 148.281 212.84L146.555 212.884L147.706 213.505C149.565 214.524 158.549 217.096 164.48 218.338C173.553 220.245 174.217 220.644 174.217 224.28C174.217 227.029 173.154 229.024 171.207 229.955C169.658 230.709 169.083 230.709 160.054 230C154.832 229.556 149.255 229.246 147.662 229.246L144.785 229.29L146.954 230.177C149.786 231.33 153.327 232.128 159.39 232.971C166.693 234.035 167.047 234.079 167.268 234.789C167.401 235.099 167.312 236.074 167.091 236.961C165.586 242.415 159.257 243.967 144.342 242.548C132.658 241.44 128.454 239.178 123.497 231.153C122.302 229.29 121.284 228.004 121.195 228.27C120.841 229.335 122.081 233.99 123.497 236.961C124.338 238.691 124.913 240.243 124.736 240.42C124.559 240.553 122.833 241.129 120.841 241.617C107.033 245.12 94.0208 242.327 86.6297 234.256C81.4515 228.625 79.6812 221.93 81.6728 215.544C82.8235 211.775 84.2841 209.514 87.7804 206.1C92.5161 201.444 97.7385 199.315 105.395 198.828C109.644 198.562 116.194 199.581 120.576 201.222L122.656 202.02L122.523 205.834C122.258 212.573 123.674 220.511 125.665 223.171C126.108 223.792 126.197 223.082 126.197 219.18C126.241 214.214 126.86 212.041 128.454 211.155C129.118 210.8 129.118 210.489 128.232 208.006C126.595 203.217 127.17 200.424 130.622 196.965L132.924 194.615L132.348 192.975C131.419 190.403 131.596 187.166 132.747 185.126C133.986 182.909 137.394 180.825 141.864 179.45C146.245 178.076 146.644 177.145 142.661 177.499L139.784 177.765L140.846 175.814C141.466 174.75 142.218 172.489 142.616 170.759C143.413 166.769 143.015 163.753 140.492 156.127C138.19 149.121 138.013 146.061 139.74 144.287C141.908 142.115 145.626 141.982 149.698 143.933ZM132.127 144.598C133.499 145.086 133.499 145.086 133.499 148.19C133.499 150.54 133.986 152.934 135.314 157.723C136.996 163.576 137.128 164.419 136.951 168.188C136.73 173.642 135.801 175.282 131.198 178.519L127.746 180.958L124.736 180.071C123.098 179.628 120.886 179.096 119.823 178.963L117.92 178.652L120.443 181.446C122.523 183.751 125.046 187.565 124.515 187.565C124.426 187.565 123.187 186.988 121.726 186.279C117.743 184.328 112.255 182.732 107.652 182.2C104.156 181.756 102.695 181.8 98.3581 182.421C93.6668 183.086 86.3642 185.259 84.9037 186.368C83.4431 187.52 84.1955 186.102 86.7625 182.865C93.4012 174.484 100.084 169.828 106.369 169.119C109.069 168.853 109.246 168.764 108.449 168.188C106.634 166.769 104.333 166.148 100.35 165.882L96.1895 165.616L98.0041 163.31C103.846 155.949 109.998 151.914 123.984 146.283C129.826 143.933 130.091 143.888 132.127 144.598ZM251.845 150.451L256.271 152.313L258.882 156.304C261.272 159.984 268.088 173.287 268.708 175.415C268.929 176.258 268.708 176.391 266.628 176.612C265.344 176.79 261.582 176.923 258.263 176.923H252.244L251.314 173.642C250.783 171.824 250.341 170.272 250.341 170.139C250.341 170.006 251.757 170.316 253.527 170.759C255.253 171.203 256.758 171.513 256.891 171.425C257.289 171.025 250.783 158.299 247.552 153.111C245.694 150.096 244.145 147.569 244.145 147.436C244.145 147.214 244.676 147.391 251.845 150.451ZM273.576 158.033C288.58 163.798 298.228 177.765 299.688 195.812C300.22 202.508 298.361 216.254 296.236 221.264C295.617 222.772 295.572 222.772 295.351 221.708C295.218 221.087 294.82 217.451 294.422 213.638C293.05 200.247 290.217 189.738 285.26 179.672C283.756 176.657 282.472 174.307 282.339 174.395C282.251 174.528 282.561 176.879 283.047 179.672C283.579 182.421 284.11 186.9 284.242 189.56C284.552 194.704 284.154 200.779 283.534 200.158C283.357 199.936 281.941 196.167 280.436 191.777C275.391 177.145 272.071 169.385 267.026 160.339C265.388 157.457 264.061 155.018 264.061 154.974C264.061 154.752 270.124 156.703 273.576 158.033ZM168.773 167.301C172.446 173.73 175.677 180.027 175.412 180.293C175.323 180.382 174.084 180.071 172.623 179.583C171.207 179.14 169.171 178.519 168.109 178.253C164.878 177.411 163.949 174.75 163.373 164.507C163.241 161.935 163.019 159.231 162.887 158.521C162.665 157.324 162.798 157.457 164.082 159.408C164.834 160.605 166.958 164.197 168.773 167.301ZM270.168 179.539C271.053 180.071 272.957 186.412 272.337 186.722C272.027 186.9 269.239 187.121 266.052 187.299C262.91 187.432 258.794 187.698 256.935 187.831L253.571 188.141L252.819 184.195C252.421 182.066 252.244 180.16 252.465 179.938C252.642 179.761 255.696 179.539 259.192 179.45C262.733 179.406 266.495 179.273 267.601 179.229C268.708 179.184 269.858 179.317 270.168 179.539ZM110.927 188.851C111.282 189.294 112.875 190.314 114.468 191.112C117.079 192.398 121.328 195.458 121.018 195.768C120.93 195.857 119.204 195.413 117.124 194.793C111.813 193.196 103.05 193.063 97.9598 194.571C84.3726 198.473 75.0784 208.937 72.4229 223.26C72.1573 224.723 71.9803 228.359 72.0688 231.374C72.1573 234.345 72.1573 236.784 72.1131 236.784C71.936 236.784 70.0772 232.394 69.0592 229.556C67.5987 225.521 67.2447 219.845 68.1298 215.633C71.3607 200.468 83.0891 190.27 100.084 187.831C100.837 187.742 103.404 187.742 105.838 187.831C109.423 188.008 110.396 188.186 110.927 188.851ZM277.692 195.635C281.1 205.257 282.693 210.888 284.242 218.604C285.128 222.861 286.101 227.517 286.411 228.935C286.986 231.419 286.986 231.552 285.968 232.705C285.393 233.37 284.862 233.813 284.729 233.68C284.596 233.547 284.198 230.576 283.8 227.029C282.561 215.943 279.817 204.37 276.364 195.369L274.992 191.866L270.744 192.176C268.398 192.354 262.202 192.841 256.979 193.329C228.875 195.945 206.481 196.256 188.069 194.393C186.122 194.216 185.281 193.906 185.281 193.507C185.281 192.708 185.414 192.708 200.594 193.595C216.35 194.482 234.762 193.95 255.43 191.999C266.539 190.935 268.442 190.802 272.071 190.713L275.922 190.669L277.692 195.635ZM270.257 195.325C272.824 196.655 273.134 198.916 271.142 200.956C269.991 202.065 269.549 202.242 268.354 202.02C265.123 201.355 264.061 197.763 266.451 195.724C267.867 194.482 268.486 194.438 270.257 195.325ZM192.539 198.695C194 200.38 194 201.931 192.584 203.306C191.477 204.459 189.397 204.769 187.981 203.971C186.609 203.262 185.945 201.089 186.609 199.537C187.715 196.877 190.681 196.477 192.539 198.695ZM273.222 207.297L274.815 207.962L274.506 212.529C273.93 220.91 273.797 221.752 272.647 222.196C271.983 222.417 271.585 222.949 271.54 223.57C271.452 226.497 270.434 234.611 270.168 234.567C269.947 234.567 269.372 234.567 268.885 234.567C267.911 234.567 267.911 234.523 268.221 228.315C268.531 222.196 268.486 222.018 267.557 221.353C266.628 220.732 266.628 220.466 266.893 216.209C267.247 210.489 267.778 208.361 268.973 207.386C270.124 206.454 271.142 206.41 273.222 207.297ZM234.939 211.066C236.886 211.642 239.055 213.372 239.94 215.101C240.383 215.943 240.604 217.717 240.604 220.555C240.604 224.767 240.604 224.812 239.099 226.497C238.258 227.384 237.417 228.847 237.196 229.689C236.665 231.729 234.718 232.217 229.672 231.552C224.538 230.842 224.228 230.62 224.228 227.65C224.228 224.59 223.387 222.905 221.307 221.93C218.209 220.466 213.075 222.107 208.826 225.92C207.587 227.029 206.392 227.916 206.171 227.916C205.374 227.916 204.312 226.053 204.312 224.679C204.312 219.934 212.854 213.106 220.953 211.332C224.538 210.578 232.593 210.445 234.939 211.066ZM255.209 212.751C257.378 213.948 258.528 216.387 258.528 219.934C258.484 224.856 256.67 227.162 252.377 227.738C249.765 228.137 247.862 227.339 247.287 225.654C246.889 224.457 246.933 224.368 248.039 224.102C250.96 223.481 250.783 223.748 250.783 219.535V215.633L248.969 215.367C246.844 215.101 246.667 214.968 247.066 213.992C247.818 211.997 252.465 211.332 255.209 212.751ZM249.367 218.294C249.455 218.781 249.411 219.801 249.278 220.599C249.013 222.063 248.969 222.063 245.871 222.373C244.145 222.55 242.684 222.639 242.595 222.55C242.507 222.462 242.33 221.22 242.153 219.801L241.843 217.229L245.517 217.362C248.703 217.495 249.234 217.628 249.367 218.294Z" fill="#002F6C"/>
<path d="M204.843 55.8701C203.56 57.0673 203.604 57.8655 205.02 59.2844C206.127 60.393 206.215 60.4373 211.083 60.1269C216.793 59.8165 218.607 60.1269 221.661 62.0336C224.14 63.5856 224.272 63.6299 224.051 62.8317C223.918 62.5657 223.741 61.7675 223.609 61.0581C223.21 59.3731 220.51 56.4466 218.784 55.9145C217.988 55.6484 214.757 55.338 211.615 55.205C206.215 54.9833 205.772 55.0276 204.843 55.8701Z" fill="#023270"/>
<path d="M181.121 57.4665C173.022 58.7524 171.296 59.5949 169.614 63.0536C168.994 64.3395 168.375 66.1575 168.198 67.133L167.888 68.8623L170.233 67C174.482 63.63 175.81 63.1866 182.847 62.5658C187.981 62.1224 189.441 61.546 190.15 59.861C190.681 58.5751 190.15 56.7571 189.264 56.7571C189.087 56.7571 188.645 56.6684 188.291 56.5797C187.981 56.491 184.75 56.8901 181.121 57.4665Z" fill="#023270"/>
<path d="M211.039 64.3841C209.136 64.6945 206.525 66.2021 206.525 67.0002C206.525 67.2219 206.348 67.3993 206.127 67.3993C205.861 67.3993 205.64 66.6455 205.551 65.7143L205.418 64.0737L204.445 65.6257C202.807 68.1531 203.25 71.7004 206.127 79.0611L207.1 81.6329L206.215 82.8302C204.489 85.1803 203.56 85.3576 197.186 84.3821C195.283 84.1161 191.698 85.7124 192.052 86.6435C192.229 87.087 191.566 87.3973 189.84 87.7521C188.468 88.0181 187.273 88.1512 187.184 88.0625C187.096 88.0181 187.317 87.353 187.715 86.6435C188.069 85.9341 188.379 84.4708 188.379 83.3623V81.3669L185.192 84.7369C183.112 86.9096 180.899 88.7276 179.041 89.7474C174.925 92.0089 174.084 93.0287 173.862 96.1326C173.73 98.3497 173.862 99.0148 175.19 101.498C177.093 105.223 177.757 105.444 177.757 102.34C177.757 99.813 178.642 97.995 179.837 97.995C180.191 97.995 181.785 99.1922 183.378 100.655C188.468 105.311 193.823 107.129 201.435 106.73C209.623 106.331 212.942 104.38 216.217 97.995C218.342 93.9156 219.36 93.1174 220.643 94.4033C221.573 95.3345 222.369 99.7243 221.794 100.7C221.573 101.055 221.617 101.143 221.971 100.922C222.236 100.744 222.989 99.5469 223.653 98.3054C224.626 96.443 224.848 95.3788 224.892 92.807C224.892 88.8163 224.14 87.6634 220.333 85.8011C218.829 85.0472 216.571 83.4066 215.244 82.1207C213.96 80.8348 212.765 79.948 212.588 80.081C212.013 80.6574 212.278 83.1406 212.987 84.1604C213.562 85.0029 213.562 85.1359 212.987 85.1359C211.526 85.1359 210.951 84.5595 210.951 83.1849C210.951 82.2537 210.287 80.7461 208.959 78.7064C206.879 75.6025 205.374 71.4344 205.817 70.2372C206.127 69.3947 208.649 68.3305 211.128 68.0201C212.411 67.8427 213.827 67.9758 215.332 68.5079C217.545 69.2173 218.032 69.7051 217.147 70.2815C216.129 70.9023 216.748 71.4344 218.12 71.124C219.802 70.7693 222.458 69.572 222.458 69.173C222.458 68.6409 219.581 66.1578 218.12 65.4483C216.085 64.3841 213.252 63.985 211.039 64.3841ZM214.491 94.8024C214.491 95.0241 214.049 95.6005 213.473 96.1326C210.685 98.7931 199.621 100.655 192.052 99.7686C188.29 99.3696 184.838 98.261 184.838 97.5516C184.838 97.3742 186.564 97.1081 188.733 96.9308C190.857 96.7534 194.664 96.31 197.231 95.9109C201.391 95.2901 207.41 94.758 212.632 94.5363C213.65 94.492 214.491 94.625 214.491 94.8024Z" fill="#023270"/>
<path d="M181.608 66.557C178.731 67.2221 176.385 68.6854 171.163 73.0308C171.074 73.0752 171.074 73.2969 171.207 73.4299C171.605 73.7846 179.218 74.9375 179.483 74.6715C179.616 74.5384 179.262 74.0507 178.642 73.6073L177.58 72.8091L179.085 71.8779C181.121 70.6364 184.794 69.9269 187.273 70.2816C189.53 70.6364 189.707 70.3703 188.291 68.8184L187.273 67.7542L189.176 67.9315C191.344 68.1089 191.566 67.7098 189.707 66.7343C188.291 66.0249 184.352 65.8918 181.608 66.557Z" fill="#023270"/>
<path d="M144.342 79.815C143.59 80.6132 143.59 80.7905 144.342 83.5841L145.139 86.5106L145.847 84.3822C146.688 81.8547 147.706 81.5 149.653 83.0963L150.981 84.1605L149.963 85.9342C147.839 89.7475 149.122 93.5166 153.017 95.0685C155.628 96.1327 155.938 95.4676 154.256 92.7184C152.884 90.5013 152.84 90.324 153.327 88.4173C153.813 86.6436 153.769 86.1559 153.061 84.5596C151.866 81.8547 148.502 78.9282 146.644 78.9282C145.714 78.9282 144.829 79.2829 144.342 79.815Z" fill="#023270"/>
<path d="M209.844 109.125C205.595 111.164 199.266 111.918 194.885 110.898C193.203 110.499 193.203 110.499 194 111.386C197.629 115.421 207.631 115.51 210.906 111.608C211.349 111.031 212.854 107.706 212.632 107.795C212.544 107.795 211.304 108.415 209.844 109.125Z" fill="#023270"/>
<path d="M221.749 175.149C221.218 175.371 220.466 175.992 220.068 176.568C217.722 179.894 222.059 184.328 225.246 181.801C228.255 179.406 225.246 173.73 221.749 175.149Z" fill="#023270"/>
<path d="M113.362 155.994C113.627 156.215 114.601 156.659 115.575 156.969C120.443 158.521 125.046 161.847 128.1 166.103C129.206 167.655 130.18 168.853 130.268 168.764C130.357 168.72 130.091 167.567 129.693 166.236C127.79 159.718 123.231 156.127 116.46 155.728C114.114 155.594 113.052 155.683 113.362 155.994Z" fill="#023270"/>
<path d="M254.545 24.2995L253.173 28.6006L248.481 28.8223L243.79 29.044L247.508 31.7045C249.544 33.1678 251.225 34.5867 251.225 34.8527C251.225 35.0744 250.65 37.0698 249.898 39.2426C249.19 41.4153 248.57 43.2333 248.57 43.3663C248.57 43.455 250.296 42.3021 252.376 40.8388C256.758 37.8236 255.828 37.7349 261.316 41.5927C262.821 42.6569 264.06 43.455 264.06 43.3663C264.06 43.2776 263.485 41.4153 262.733 39.2426C262.024 37.0698 261.405 35.0744 261.405 34.7641C261.405 34.4537 262.998 33.0347 264.945 31.6158L268.53 29.044L263.795 28.8223L259.059 28.6006L257.82 24.6542C257.156 22.5258 256.448 20.5748 256.227 20.3974C256.05 20.1757 255.253 21.9494 254.545 24.2995Z" fill="#0164AE"/>
<path d="M113.539 24.6985L112.034 29.044L107.387 29.2657L102.74 29.4874L106.059 31.9262C107.874 33.2565 109.556 34.498 109.733 34.6311C109.954 34.8084 109.511 36.8481 108.715 39.1982C107.918 41.5927 107.387 43.588 107.431 43.6767C107.52 43.7211 109.246 42.6125 111.282 41.1049L114.955 38.4444L118.894 41.1493C121.107 42.6125 122.877 43.8097 122.877 43.7654C122.877 43.7211 122.258 41.77 121.549 39.4643C120.841 37.1585 120.222 35.1188 120.222 34.8971C120.222 34.7197 121.815 33.3895 123.807 31.9262L127.392 29.2657H122.744H118.097L116.681 24.8316C115.929 22.3928 115.265 20.3974 115.176 20.3974C115.088 20.3974 114.335 22.3484 113.539 24.6985Z" fill="#0164AE"/>
<path d="M284.817 41.1048L283.357 45.672H278.488H273.664L277.47 48.5542C279.595 50.1505 281.321 51.7024 281.321 52.0128C281.321 52.5006 279.55 58.2206 278.842 59.9943C278.665 60.5264 279.993 59.7726 282.383 58.0876C284.463 56.58 286.455 55.4271 286.764 55.5601C287.03 55.6488 288.756 56.8017 290.571 58.0433C292.385 59.2848 293.934 60.2603 293.979 60.1716C294.067 60.1273 293.492 58.0876 292.739 55.7375C291.987 53.343 291.456 51.3477 291.544 51.259C291.633 51.1703 293.403 49.8844 295.395 48.3768L299.113 45.672H294.244H289.376L287.827 41.1048L286.322 36.5819L284.817 41.1048Z" fill="#0164AE"/>
<path d="M83.1772 41.3265L81.8937 45.4503L77.0696 45.672L72.2012 45.8937L76.0959 48.6872C78.2203 50.2392 79.9463 51.5251 79.9463 51.5694C79.9463 51.6137 79.3267 53.5204 78.6186 55.8262C77.9105 58.132 77.3794 60.083 77.4236 60.1717C77.5122 60.216 79.1497 59.1961 81.0971 57.8659C83.0002 56.5357 84.7262 55.4271 84.9475 55.4271C85.1688 55.4271 86.9391 56.5357 88.8422 57.8659C90.7453 59.1961 92.3829 60.3047 92.5157 60.3047C92.6484 60.3047 92.0731 58.3093 91.2322 55.8705L89.7274 51.4364L93.5779 48.6872L97.4283 45.8937L92.5599 45.672L87.7358 45.4503L86.3638 41.3265C85.6556 39.1094 84.9033 37.2471 84.7705 37.2471C84.5935 37.2471 83.8853 39.1094 83.1772 41.3265Z" fill="#0164AE"/>
<path d="M125.311 46.2927C110.972 53.2987 98.5352 62.2114 86.6741 74.0949C55.0737 105.622 41.2652 150.451 50.0726 192.886C50.9135 196.965 52.6395 203.173 53.8788 206.454L54.8082 208.938L56.2244 205.656C57.7292 202.242 60.1634 197.896 63.0402 193.64L64.7663 191.068L63.9254 186.988C60.1192 168.321 60.606 150.318 65.5187 132.537C67.643 124.777 69.7674 119.235 73.3081 111.963C79.5042 99.2365 86.32 89.8361 96.9862 79.1055C106.103 69.9268 114.999 63.1425 126.064 56.979L130.755 54.3186L131.065 50.1061C131.198 47.8004 131.419 45.3616 131.508 44.6521C131.64 43.987 131.552 43.4549 131.375 43.4549C131.198 43.4549 128.498 44.7408 125.311 46.2927Z" fill="#013F84"/>
<path d="M251.978 50.2832C252.155 52.2785 251.978 53.7418 251.447 55.3824C251.049 56.6684 250.783 57.7769 250.872 57.9099C251.004 57.9986 252.642 59.0628 254.589 60.2157C279.993 75.7796 300.175 100.522 310.177 128.369C312.612 135.064 315.577 147.125 316.595 154.087C317.701 162.024 317.701 181.091 316.595 188.274C315.798 193.152 315.798 193.196 316.772 195.369C318.1 198.428 321.906 208.006 323.234 211.731C325.402 217.672 325.092 217.495 326.553 213.283C328.191 208.449 330.138 200.601 331.421 193.462C332.307 188.407 332.439 186.412 332.439 174.927C332.439 161.669 332.307 160.516 330.182 149.076C328.014 137.459 323.765 124.91 318.055 113.514C305.53 88.3282 285.349 66.7339 260.653 52.0568C257.377 50.1058 252.332 47.4453 251.934 47.4453C251.845 47.4453 251.889 48.7312 251.978 50.2832Z" fill="#013F84"/>
<path d="M59.0124 61.1913C58.8797 61.546 58.2158 63.5857 57.5519 65.6698C56.3569 69.4388 56.3127 69.5275 54.7636 69.7935C53.8785 69.9266 51.7984 70.0596 50.1608 70.0596C48.479 70.0596 47.2398 70.237 47.3725 70.4587C47.5053 70.636 49.0543 71.7889 50.7804 72.9861C52.5065 74.139 54.0113 75.3362 54.0998 75.6023C54.1883 75.824 53.7015 77.8194 52.9491 80.0364C52.2409 82.2092 51.6213 84.1159 51.6213 84.3376C51.6213 84.5149 53.3474 83.4507 55.4275 81.9875L59.2337 79.2383L63.1727 81.9875C65.3413 83.4951 67.1117 84.648 67.1117 84.5149C67.1117 84.4263 66.5363 82.5639 65.7839 80.3912C65.0758 78.2628 64.4562 76.2674 64.4562 75.957C64.4562 75.6466 66.0052 74.2277 67.8641 72.8531C71.0949 70.503 71.2277 70.2813 70.2097 70.0153C69.5901 69.8379 67.5543 69.7049 65.6954 69.6605C63.7923 69.6162 62.2433 69.5718 62.2433 69.4832C62.1548 68.419 59.1452 60.7035 59.0124 61.1913Z" fill="#0164AE"/>
<path d="M311.859 65.7587L310.31 70.2815L305.663 70.5033L301.016 70.725L303.229 72.2326C304.468 73.0751 306.15 74.3166 307.079 75.0261L308.672 76.2677L307.168 80.5688C306.371 82.9189 305.796 84.9586 305.884 85.0473C305.973 85.136 307.743 84.0274 309.823 82.5198L313.585 79.7706L317.258 82.4311C319.294 83.8944 320.976 84.9143 321.065 84.6925C321.153 84.4708 320.578 82.6085 319.87 80.4801C319.117 78.3517 318.498 76.4894 318.498 76.312C318.498 76.1346 320.135 74.8044 322.127 73.3411L325.756 70.725L321.242 70.5919C316.063 70.4589 316.727 71.0354 314.647 64.8719L313.408 61.2359L311.859 65.7587Z" fill="#0164AE"/>
<path d="M37.9012 231.507C25.3761 232.084 12.4085 233.636 3.42407 235.676L0.281738 236.429V243.258V250.131L4.84033 249.865C11.9216 249.466 31.1297 248.801 45.6463 248.49C52.9489 248.313 59.7647 248.047 60.7826 247.914L62.6415 247.648L60.0302 243.701C57.6403 240.154 55.218 235.886 55.218 234.29C54.2222 233.126 52.0195 230.887 37.9012 231.507Z" fill="#43802E"/>
<path d="M326.154 231.551C324.119 231.817 322.57 232.172 322.702 232.349C322.835 232.571 322.747 232.793 322.481 232.881C322.26 232.926 320.711 234.744 319.073 236.872C317.391 239.001 314.603 242.371 312.788 244.322L309.558 247.869H311.682C316.064 247.869 360.676 249.199 370.501 249.643C376.122 249.864 381.433 250.086 382.362 250.086H384L383.911 242.903L383.779 235.719L382.451 235.365C381.743 235.187 378.335 234.611 374.927 234.123C356.648 231.507 335.847 230.443 326.154 231.551Z" fill="#43802E"/>
<path d="M332.273 218.16L332.088 218.689C332.088 218.689 330.605 220.54 329.233 222.655C327.825 224.77 325.49 228.119 323.97 230.058L321.928 233.458L323.043 233.583C326.713 233.583 364.077 234.905 372.307 235.345C377.014 235.566 381.462 235.786 382.241 235.786H383.612C383.612 235.786 387.406 227.523 332.273 218.16Z" fill="#7CBF44"/>
<path d="M52.7287 218.659C52.7287 218.659 52.1979 221.69 52.2308 223.648C52.3032 227.949 55.2183 234.248 55.2183 234.248H54.7079C51.3933 234.248 17.6446 235.57 10.2119 236.011C5.95982 236.231 1.94211 236.451 1.23901 236.451H0.000230229C0.000230229 236.451 2.93123 228.022 52.7287 218.659Z" fill="#7CBF44"/>
<path d="M105.616 251.86C60.3843 252.792 5.81401 254.344 2.14058 254.787L0.281738 255.009V277.135V299.306L2.18484 299.084C9.75298 298.197 56.4896 294.872 76.8483 293.763C142.616 290.216 209.136 289.506 267.158 291.768C282.029 292.344 304.025 293.408 313.408 293.985C333.015 295.226 376.919 298.508 381.92 299.128L384 299.395V277.224V255.053L378.822 254.787C367.58 254.211 343.902 253.457 296.59 252.259C273.443 251.683 129.87 251.373 105.616 251.86ZM179.97 271.149V282.013H178.2C177.049 282.013 176.296 281.791 176.164 281.392C175.942 280.86 175.633 280.904 174.393 281.658C171.428 283.432 168.197 281.569 167.091 277.445C166.117 273.765 167.489 268.799 169.835 267.602C171.339 266.804 174.261 266.715 175.013 267.469C175.411 267.868 175.544 267.158 175.544 264.143V260.285H177.757H179.97V271.149ZM194.088 261.216C195.327 261.66 195.46 261.882 195.46 263.655C195.46 265.828 195.549 265.784 193.203 265.119C191.079 264.453 189.043 265.207 188.202 266.892C186.564 270.129 186.874 274.829 188.91 276.869C190.105 278.066 190.37 278.111 192.849 277.889L195.46 277.667V279.574C195.46 281.481 195.416 281.525 193.911 281.835C189.264 282.678 185.369 281.126 183.688 277.712C182.67 275.583 182.316 269.73 183.068 267.203C184.528 262.236 189.397 259.576 194.088 261.216ZM81.4512 262.813C81.584 263.744 81.7167 268.755 81.7167 273.898V283.343H79.5481H77.4237L77.1139 279.263C76.9811 277.046 76.8483 272.169 76.8483 268.444C76.8483 260.995 76.7156 261.349 79.7694 261.216C81.0529 261.172 81.1856 261.305 81.4512 262.813ZM112.432 262.857C115.087 264.675 115.973 266.848 116.15 271.725C116.371 276.692 115.618 279.086 113.361 281.081C111.945 282.323 109.422 283.343 107.829 283.343C104.908 283.343 101.721 281.215 100.261 278.332C98.9774 275.849 98.6676 270.927 99.5528 267.779C101.235 261.97 107.652 259.531 112.432 262.857ZM73.6618 262.148C74.4141 262.901 74.3256 264.985 73.4847 265.784C71.8914 267.38 69.3245 266.183 69.3245 263.833C69.3245 263.079 69.6343 262.369 70.1211 262.103C71.139 261.483 72.9979 261.483 73.6618 262.148ZM31.2624 265.385V267.38H27.9431H24.6237V269.819V272.258H27.7218H30.8199V274.253V276.248H29.0938C28.1644 276.248 26.7924 276.381 25.9957 276.514L24.6237 276.78L24.7565 280.86L24.845 284.895L22.5878 285.028L20.3307 285.161L20.0651 278.155C19.6226 267.469 19.6668 263.921 20.3307 263.7C20.5962 263.567 23.2075 263.434 26.0842 263.434L31.2624 263.389V265.385ZM231.309 265.562C231.309 267.203 231.398 267.336 232.77 267.469C234.053 267.602 234.186 267.735 234.319 269.242C234.452 270.883 234.452 270.927 232.858 270.927H231.265L231.398 274.785L231.531 278.687L232.991 278.598C234.452 278.554 234.452 278.554 234.319 280.372L234.186 282.234L231.84 282.367C229.76 282.5 229.362 282.367 228.211 281.17C226.928 279.884 226.883 279.751 226.883 275.406C226.883 271.238 226.839 270.927 225.998 270.927C225.246 270.927 225.113 270.617 225.113 269.154C225.113 267.69 225.246 267.38 225.954 267.38C226.618 267.38 226.883 267.025 226.972 265.961C227.105 264.498 227.946 263.966 230.336 263.877C231.177 263.833 231.309 264.054 231.309 265.562ZM275.567 266.449C275.567 268.089 275.656 268.222 277.028 268.355C278.311 268.488 278.444 268.622 278.577 270.129C278.71 271.77 278.71 271.814 277.161 271.814H275.567V275.583V279.352L276.939 279.663C278.179 279.884 278.267 280.062 278.134 281.525L278.002 283.121H275.612C273.576 283.077 273.089 282.899 272.204 281.835C271.23 280.727 271.142 280.239 271.142 276.204C271.142 272.124 271.097 271.814 270.256 271.814C269.504 271.814 269.371 271.504 269.371 270.04C269.371 268.577 269.504 268.267 270.212 268.267C270.876 268.267 271.142 267.912 271.23 266.848C271.363 265.385 272.204 264.852 274.594 264.764C275.435 264.719 275.567 264.941 275.567 266.449ZM148.281 267.38C150.273 268.134 150.759 269.863 150.759 276.16V281.88L149.166 282.146C146.422 282.589 146.334 282.456 146.334 277.135C146.334 271.637 146.157 270.927 144.829 270.927C143.059 270.927 142.793 271.681 142.793 277.224V282.456H140.58H138.367V274.918V267.38H140.359C141.819 267.38 142.35 267.557 142.35 268.045C142.35 268.799 143.059 268.932 143.457 268.222C144.165 267.114 146.511 266.67 148.281 267.38ZM162.311 267.646C164.037 268.533 165.32 271.371 165.365 274.164C165.365 276.248 165.32 276.293 164.17 276.204C163.462 276.16 161.603 276.16 159.965 276.16C157.221 276.248 157.044 276.293 157.265 277.179C157.664 278.554 159.434 279.086 162.001 278.51C163.196 278.244 164.214 278.066 164.302 278.111C164.347 278.199 164.479 278.953 164.568 279.796C164.701 281.259 164.612 281.348 162.709 281.924C160.186 282.678 156.867 282.323 155.185 281.126C152.663 279.308 151.777 273.765 153.459 270.262C154.875 267.336 159.213 266.005 162.311 267.646ZM206.835 267.823C210.641 270.129 211.083 277.091 207.631 280.549C206.303 281.88 205.905 282.013 203.604 282.013C198.824 282.013 196.788 279.707 196.788 274.386C196.788 270.972 197.762 268.888 199.93 267.735C201.922 266.67 205.02 266.715 206.835 267.823ZM222.413 268.089L223.785 269.242V275.627V282.013H221.572H219.36V276.692C219.36 272.169 219.271 271.282 218.651 271.06C216.925 270.395 216.483 271.459 216.262 276.736L216.04 281.791L213.96 281.924L211.836 282.057V274.741V267.38H213.827C215.244 267.38 215.819 267.557 215.819 268.001C215.819 268.488 216.173 268.444 217.456 267.779C219.669 266.626 220.82 266.715 222.413 268.089ZM137.039 267.602C137.039 267.868 134.517 278.421 133.897 280.815L133.455 282.5L131.197 282.367L128.896 282.234L128.011 278.022L127.17 273.854L126.24 278.022L125.311 282.234H122.965H120.62L118.849 275.406C117.876 271.637 116.99 268.4 116.858 268.222C116.725 268.001 117.699 267.823 119.071 267.823H121.461L121.992 270.129C122.257 271.415 122.611 273.322 122.744 274.342C123.098 276.913 123.585 276.736 123.939 273.898C124.116 272.657 124.47 270.75 124.736 269.686C125.178 267.868 125.222 267.823 127.126 267.823C129.25 267.823 129.161 267.646 130.578 274.076C130.932 275.627 131.197 276.692 131.242 276.426C131.374 275.007 132.658 268.089 132.879 267.779C133.1 267.38 137.039 267.203 137.039 267.602ZM244.587 269.597V271.814H243.082C240.692 271.814 240.161 272.967 240.161 278.155V282.5L238.081 282.367C236.399 282.279 235.956 282.057 236.001 281.436C236.001 281.037 236.045 277.8 236.089 274.253L236.178 267.823H238.169C239.63 267.823 240.161 268.001 240.161 268.488C240.161 269.021 240.426 268.976 241.621 268.267C244.011 266.804 244.587 267.025 244.587 269.597ZM254.678 268.577C256.625 269.774 257.112 271.903 256.758 277.445L256.448 282.456H254.766C253.837 282.456 252.996 282.234 252.907 281.968C252.819 281.702 252.288 281.747 251.447 282.19C249.411 283.254 247.773 283.077 246.313 281.614C245.295 280.594 245.029 279.929 245.029 278.465C245.029 277.445 245.251 276.248 245.516 275.716C246.136 274.563 248.526 273.588 250.783 273.588C252.199 273.588 252.553 273.41 252.553 272.745C252.553 270.972 250.871 270.573 247.419 271.592C246.623 271.858 246.446 271.681 246.224 270.395C245.959 268.577 246.18 268.355 248.614 267.868C250.916 267.424 253.261 267.69 254.678 268.577ZM267.335 268.267C269.194 268.976 268.796 272.036 266.893 271.548C264.813 271.016 263.706 271.681 263.131 273.676C262.157 277.401 263.795 279.84 266.893 279.263C267.822 279.086 267.999 279.263 268.221 280.638C268.486 282.5 268.53 282.456 266.539 282.899C262.821 283.742 259.635 281.702 258.749 277.933C257.776 273.854 259.192 269.686 261.98 268.488C263.662 267.735 265.786 267.646 267.335 268.267ZM65.9608 269.597C66.9788 270.617 67.4656 273.721 67.5099 279.707L67.5541 283.831L65.2527 283.698L62.907 283.565L62.8185 278.909C62.6415 273.189 62.4644 272.258 61.4022 272.258C59.7647 272.258 59.3664 273.455 59.3664 278.82V283.875L57.3305 284.052L55.2946 284.23L54.9848 281.924C54.852 280.638 54.7193 278.155 54.7193 276.426C54.7193 272.834 54.1439 271.814 52.5506 272.701C52.0195 272.967 51.6212 273.41 51.5769 273.721C51.5769 274.031 51.5769 276.514 51.6212 279.219L51.6655 284.23H49.4968H47.3282L47.0626 279.485C46.8856 276.913 46.7528 273.499 46.7528 271.947V269.154H48.7444C50.1164 269.154 50.8245 269.375 51.0016 269.819C51.2229 270.395 51.4442 270.351 52.3736 269.597C53.9226 268.4 56.6224 268.4 57.8616 269.641C58.7025 270.484 58.8353 270.484 59.5434 269.863C61.4465 268.134 64.3675 268.001 65.9608 269.597ZM74.3699 275.45C74.5912 279.263 74.6354 282.722 74.5027 283.121C74.2814 283.609 73.5732 283.786 71.9799 283.786H69.767V276.293V268.755L71.0063 268.577C74.0601 268.089 73.9273 267.779 74.3699 275.45ZM88.798 271.193C89.2849 272.79 89.6832 274.297 89.6832 274.475C89.6832 274.696 89.9045 275.406 90.17 276.115L90.6569 277.357L91.2322 275.361C91.542 274.253 92.1174 272.213 92.5157 270.794L93.2681 268.267H95.4368C96.676 268.267 97.6497 268.355 97.6497 268.444C97.6497 269.154 92.3387 285.604 91.7191 286.757C90.8782 288.442 90.1258 288.886 87.6031 289.329L85.7 289.639V287.866C85.7 286.358 85.877 286.048 86.8064 285.826C88.0899 285.516 89.0636 283.565 88.3997 282.722C87.9571 282.19 84.8591 273.809 83.7084 270.129L83.133 268.267H85.5229H87.8686L88.798 271.193ZM288.845 269.065C292.031 270.617 293.359 276.071 291.545 280.106C289.642 284.274 284.375 284.984 281.055 281.525C279.905 280.328 279.772 279.84 279.639 276.736C279.506 273.942 279.639 272.967 280.347 271.504C281.896 268.488 285.614 267.424 288.845 269.065ZM298.493 269.686C298.67 270.44 298.759 270.44 299.423 269.863C300.396 268.976 302.388 268.533 302.786 269.154C302.963 269.42 302.963 270.44 302.786 271.371C302.521 273.011 302.388 273.144 301.016 273.144C300.219 273.144 299.378 273.41 299.113 273.721C298.847 274.031 298.582 276.337 298.493 278.909C298.36 283.432 298.316 283.565 297.298 283.698C296.767 283.786 295.793 283.742 295.218 283.609L294.156 283.343V276.293C294.156 272.435 294.289 269.154 294.466 268.976C294.643 268.843 295.572 268.71 296.502 268.799C297.785 268.843 298.316 269.109 298.493 269.686ZM312.434 269.686C312.921 269.952 313.187 270.617 313.187 271.637C313.187 273.011 313.054 273.189 312.434 272.878C311.992 272.701 310.841 272.524 309.868 272.524C307.168 272.479 307.345 273.588 310.31 275.051C312.213 275.982 312.966 276.647 313.452 277.845C314.338 279.973 313.629 282.19 311.682 283.387C309.027 285.028 303.45 284.052 303.45 281.924C303.45 280.239 304.07 279.618 305.132 280.195C305.619 280.461 306.769 280.682 307.61 280.682C309.868 280.682 309.779 279.308 307.478 278.244C304.734 277.046 303.671 275.627 303.671 273.322C303.671 271.06 304.778 269.686 307.035 269.154C308.628 268.799 311.151 269.021 312.434 269.686ZM42.8138 270.395C44.1858 271.592 44.2301 271.858 44.5841 276.071C44.7612 278.465 44.9382 281.303 44.9825 282.323V284.23H43.0351C41.8401 284.23 40.9992 284.008 40.8665 283.653C40.7337 283.254 40.4681 283.299 39.8485 283.875C36.5734 286.757 31.5723 283.565 32.4132 279.13C32.8115 276.913 34.3605 275.716 37.6356 275.184C40.2911 274.741 40.4239 274.652 40.0698 273.676C39.76 272.878 39.3617 272.701 37.6799 272.701C36.5292 272.701 35.2457 272.923 34.7146 273.189C33.6524 273.765 33.6524 273.765 33.3426 271.725C33.1213 270.262 33.2098 270.04 34.272 269.641C34.9359 269.42 36.7947 269.198 38.4323 269.198C41.132 269.154 41.5746 269.287 42.8138 270.395ZM330.182 270.04C330.979 270.306 331.333 270.794 331.333 271.459C331.333 273.011 330.846 273.366 328.677 273.366C326.686 273.366 326.686 273.366 326.066 275.317C325.535 277.046 325.535 277.534 326.066 279.086C326.686 280.86 326.73 280.904 328.766 280.86C330.757 280.86 330.802 280.904 330.979 282.323C331.2 284.23 330.536 284.762 327.881 284.806C325.358 284.851 323.411 283.831 322.216 281.835C321.109 279.973 321.065 274.874 322.171 272.79C323.632 270.085 327.172 268.888 330.182 270.04ZM342.309 270.927C344.168 272.08 345.053 274.209 345.053 277.445C345.008 282.323 342.707 285.117 338.68 285.117C334.431 285.117 331.908 281.88 332.306 276.913C332.572 273.676 333.634 271.681 335.493 270.75C337.44 269.774 340.538 269.863 342.309 270.927ZM351.16 271.415C351.249 271.592 351.957 271.459 352.798 271.06C354.435 270.262 356.162 270.528 357.401 271.77C358.153 272.524 358.242 272.524 359.215 271.725C360.278 270.839 362.756 270.661 364.084 271.371C364.526 271.592 365.057 272.391 365.323 273.056C365.81 274.519 365.5 285.471 364.925 285.826C364.748 285.915 363.774 285.87 362.756 285.737L360.986 285.427L361.074 280.062L361.207 274.696H360.145C358.64 274.696 358.419 275.406 358.065 280.771L357.799 285.56H355.807H353.86L353.949 280.239C354.081 274.519 353.816 273.588 352.267 274.43C351.293 274.918 350.806 277.49 350.806 282.367V285.161L348.726 285.028L346.646 284.895L346.735 279.13C346.823 275.938 346.956 272.745 347.089 271.991C347.354 270.617 347.398 270.573 349.169 270.839C350.187 270.972 351.072 271.238 351.16 271.415ZM319.383 280.638C320.135 282.057 319.87 283.299 318.719 284.052C316.595 285.471 314.161 282.988 315.4 280.682C316.064 279.485 318.719 279.441 319.383 280.638Z" fill="#013F84"/>
<path d="M172.004 271.326C171.384 272.568 171.428 276.825 172.136 277.756C172.933 278.864 174.703 278.51 175.456 277.135C176.12 275.805 175.81 271.371 174.969 270.839C173.995 270.218 172.49 270.484 172.004 271.326Z" fill="#013F84"/>
<path d="M106.457 265.784C104.51 266.715 103.758 268.932 103.979 272.878C104.244 276.736 105.085 278.421 106.988 278.953C108.582 279.352 109.909 278.687 110.706 277.135C111.68 275.228 111.68 269.686 110.706 267.602C109.821 265.784 108.006 264.985 106.457 265.784Z" fill="#013F84"/>
<path d="M158.195 270.572C157.797 270.883 157.354 271.592 157.177 272.124C156.912 273.1 157.044 273.144 158.903 273.144C160.762 273.144 160.939 273.055 160.939 272.036C160.939 271.415 160.585 270.75 160.098 270.484C159.036 269.907 159.036 269.907 158.195 270.572Z" fill="#013F84"/>
<path d="M201.656 271.326C201.435 271.814 201.214 273.41 201.214 274.873C201.214 277.268 201.347 277.623 202.32 278.288C203.383 278.997 203.515 278.997 204.312 278.243C205.02 277.578 205.197 276.869 205.197 274.474C205.197 272.789 204.976 271.326 204.666 271.016C203.869 270.218 202.188 270.395 201.656 271.326Z" fill="#013F84"/>
<path d="M249.456 276.913C248.703 277.844 249.101 279.13 250.252 279.263C251.58 279.485 252.554 278.642 252.554 277.312C252.554 276.425 252.332 276.248 251.27 276.248C250.562 276.248 249.765 276.558 249.456 276.913Z" fill="#013F84"/>
<path d="M284.507 272.346C283.666 273.188 283.799 278.687 284.684 279.573C286.322 281.214 287.959 279.263 287.959 275.671C287.959 274.474 287.738 273.144 287.517 272.656C286.986 271.725 285.304 271.548 284.507 272.346Z" fill="#013F84"/>
<path d="M37.2818 278.731C36.4409 279.529 36.4409 279.618 37.0163 280.726C37.9457 282.411 40.557 281.125 40.557 278.997C40.557 278.199 40.2914 278.021 39.2735 278.021C38.5653 278.021 37.6359 278.332 37.2818 278.731Z" fill="#013F84"/>
<path d="M337.484 273.853C336.732 274.785 336.422 279.44 337.042 280.638C337.706 281.835 339.564 281.879 340.184 280.726C340.892 279.352 340.759 274.652 339.918 273.853C339.033 272.967 338.237 272.967 337.484 273.853Z" fill="#013F84"/>
<path d="M152.309 296.202C110.219 297.221 67.9526 299.261 29.9349 302.232C8.95653 303.828 6.56659 304.183 17.5426 303.917C22.5438 303.828 42.0616 303.429 60.9156 303.03L95.2157 302.321L101.191 304.538C125.71 313.628 150.671 318.505 179.085 319.747C213.518 321.299 249.146 315.667 278.666 304.139L284.198 301.966L299.91 302.409C332.174 303.296 377.937 304.227 374.927 303.917C353.152 301.567 295.528 298.064 254.545 296.645C237.24 296.024 172.004 295.758 152.309 296.202Z" fill="#013F84"/>
</svg>
